0
SECTION
2
HEADER
9
$INSUNITS
70
4
0
ENDSEC
0
SECTION
2
TABLES
0
TABLE
2
LTYPE
0
LTYPE
72
65
70
64
2
CONTINUOUS
3
______
73
0
40
0
0
ENDTAB
0
TABLE
2
LAYER
0
ENDTAB
0
ENDSEC
0
SECTION
2
ENTITIES
0
LINE
8
front_outsideCutPath
10
0
20
263
11
0
21
238
0
LINE
8
front_outsideCutPath
10
0
20
238
11
4
21
238
0
LINE
8
front_outsideCutPath
10
4
20
238
11
4
21
208
0
LINE
8
front_outsideCutPath
10
4
20
208
11
0
21
208
0
LINE
8
front_outsideCutPath
10
0
20
208
11
0
21
178
0
LINE
8
front_outsideCutPath
10
0
20
178
11
4
21
178
0
LINE
8
front_outsideCutPath
10
4
20
178
11
4
21
148
0
LINE
8
front_outsideCutPath
10
4
20
148
11
0
21
148
0
LINE
8
front_outsideCutPath
10
0
20
148
11
0
21
118
0
LINE
8
front_outsideCutPath
10
0
20
118
11
4
21
118
0
LINE
8
front_outsideCutPath
10
4
20
118
11
4
21
88
0
LINE
8
front_outsideCutPath
10
4
20
88
11
0
21
88
0
LINE
8
front_outsideCutPath
10
0
20
88
11
0
21
58
0
LINE
8
front_outsideCutPath
10
0
20
58
11
4
21
58
0
LINE
8
front_outsideCutPath
10
4
20
58
11
4
21
28
0
LINE
8
front_outsideCutPath
10
4
20
28
11
0
21
28
0
LINE
8
front_outsideCutPath
10
0
20
28
11
0
21
3
0
LINE
8
front_outsideCutPath
10
0
20
3
11
25
21
3
0
LINE
8
front_outsideCutPath
10
25
20
3
11
25
21
7
0
LINE
8
front_outsideCutPath
10
25
20
7
11
55
21
7
0
LINE
8
front_outsideCutPath
10
55
20
7
11
55
21
3
0
LINE
8
front_outsideCutPath
10
55
20
3
11
80
21
3
0
LINE
8
front_outsideCutPath
10
80
20
3
11
80
21
28
0
LINE
8
front_outsideCutPath
10
80
20
28
11
76
21
28
0
LINE
8
front_outsideCutPath
10
76
20
28
11
76
21
58
0
LINE
8
front_outsideCutPath
10
76
20
58
11
80
21
58
0
LINE
8
front_outsideCutPath
10
80
20
58
11
80
21
88
0
LINE
8
front_outsideCutPath
10
80
20
88
11
76
21
88
0
LINE
8
front_outsideCutPath
10
76
20
88
11
76
21
118
0
LINE
8
front_outsideCutPath
10
76
20
118
11
80
21
118
0
LINE
8
front_outsideCutPath
10
80
20
118
11
80
21
148
0
LINE
8
front_outsideCutPath
10
80
20
148
11
76
21
148
0
LINE
8
front_outsideCutPath
10
76
20
148
11
76
21
178
0
LINE
8
front_outsideCutPath
10
76
20
178
11
80
21
178
0
LINE
8
front_outsideCutPath
10
80
20
178
11
80
21
208
0
LINE
8
front_outsideCutPath
10
80
20
208
11
76
21
208
0
LINE
8
front_outsideCutPath
10
76
20
208
11
76
21
238
0
LINE
8
front_outsideCutPath
10
76
20
238
11
80
21
238
0
LINE
8
front_outsideCutPath
10
80
20
238
11
80
21
263
0
LINE
8
front_outsideCutPath
10
80
20
263
11
0
21
263
0
LINE
8
front_labelLayer
10
26.7460937
20
135.5197006
11
26.7460937
21
134.5118881
0
LINE
8
front_labelLayer
10
26.7460937
20
134.5118881
11
24.5664062
21
134.5118881
0
LINE
8
front_labelLayer
10
24.5664062
20
134.5118881
11
24.5664062
21
126.9572006
0
LINE
8
front_labelLayer
10
24.5664062
20
126.9572006
11
23.2695312
21
126.9572006
0
LINE
8
front_labelLayer
10
23.2695312
20
126.9572006
11
23.2695312
21
134.5118881
0
LINE
8
front_labelLayer
10
23.2695312
20
134.5118881
11
21.7382812
21
134.5118881
0
LINE
8
front_labelLayer
10
21.7382812
20
134.5118881
11
21.7382812
21
135.0978256
0
LINE
8
front_labelLayer
10
21.7382812
20
135.0978256
11
23.2695312
21
135.5665756
0
LINE
8
front_labelLayer
10
23.2695312
20
135.5665756
11
23.2695312
21
136.0431381
0
LINE
8
front_labelLayer
10
27.6210937
20
138.9259506
11
27.2851562
21
137.8868881
0
LINE
8
front_labelLayer
10
24.5664062
20
136.0743881
11
24.5664062
21
135.5197006
0
LINE
8
front_labelLayer
10
24.5664062
20
135.5197006
11
26.7460937
21
135.5197006
0
ARC
8
front_labelLayer
10
28.5253247
20
136.1035605
40
5.2561408
50
167.5776172
51
180.6586624
0
ARC
8
front_labelLayer
10
26.0537086
20
136.6797966
40
2.7186086
50
141.7433936
51
168.2322161
0
ARC
8
front_labelLayer
10
25.6512815
20
136.8898326
40
2.2741143
50
98.2551559
51
139.620331
0
ARC
8
front_labelLayer
10
26.0046198
20
135.2575413
40
3.9419123
50
89.669706
51
99.9314304
0
ARC
8
front_labelLayer
10
26.0056044
20
135.0232213
40
4.1762233
50
81.5640647
51
89.7017457
0
ARC
8
front_labelLayer
10
25.7120033
20
132.9748926
40
6.2454708
50
75.9739961
51
81.6564686
0
ARC
8
front_labelLayer
10
25.2082033
20
130.8852287
40
8.3949538
50
73.2963503
51
76.0946352
0
ARC
8
front_labelLayer
10
25.3350337
20
131.8987709
40
6.2976603
50
71.9613634
51
76.5918041
0
ARC
8
front_labelLayer
10
25.8236364
20
133.971466
40
4.1681641
50
76.5183113
51
83.0217261
0
ARC
8
front_labelLayer
10
25.9938131
20
135.3400328
40
2.7890612
50
83.0760593
51
89.7926562
0
ARC
8
front_labelLayer
10
25.9882145
20
136.3801656
40
1.7489804
50
89.48594
51
103.4197374
0
ARC
8
front_labelLayer
10
25.8305308
20
136.9859702
40
1.1231938
50
102.7677284
51
144.3380381
0
ARC
8
front_labelLayer
10
26.1481998
20
136.7815803
40
1.5005723
50
145.0689034
51
162.1801816
0
ARC
8
front_labelLayer
10
27.2373612
20
136.415132
40
2.6496677
50
161.8437745
51
171.7847177
0
ARC
8
front_labelLayer
10
29.0138399
20
136.1483106
40
4.4460553
50
171.6527938
51
178.438324
0
ARC
8
front_labelLayer
10
30.689106
20
136.0768704
40
6.1227002
50
178.1972851
51
180.023229
0
LINE
8
front_labelLayer
10
33.2382812
20
135.5822006
11
33.0585937
21
134.3790756
0
LINE
8
front_labelLayer
10
29.6054687
20
131.5509506
11
29.6054687
21
126.9572006
0
LINE
8
front_labelLayer
10
29.6054687
20
126.9572006
11
28.3085937
21
126.9572006
0
LINE
8
front_labelLayer
10
28.3085937
20
126.9572006
11
28.3085937
21
135.5197006
0
LINE
8
front_labelLayer
10
28.3085937
20
135.5197006
11
29.3789062
21
135.5197006
0
LINE
8
front_labelLayer
10
29.3789062
20
135.5197006
11
29.5273437
21
133.9337631
0
LINE
8
front_labelLayer
10
29.5273437
20
133.9337631
11
29.5898437
21
133.9337631
0
ARC
8
front_labelLayer
10
32.228153
20
129.7222148
40
5.9537507
50
84.9922713
51
90.1280813
0
ARC
8
front_labelLayer
10
32.3711436
20
131.3242106
40
4.3453892
50
78.4891492
51
85.0266376
0
ARC
8
front_labelLayer
10
31.8161724
20
128.8000356
40
5.7157063
50
77.4454105
51
81.6360423
0
ARC
8
front_labelLayer
10
32.0652006
20
130.5165647
40
3.9812118
50
81.5884353
51
87.1916597
0
ARC
8
front_labelLayer
10
32.1192877
20
131.454521
40
3.0417427
50
87.3436103
51
89.9659798
0
ARC
8
front_labelLayer
10
32.1067215
20
132.2492086
40
2.2471004
50
89.6335396
51
137.0880816
0
ARC
8
front_labelLayer
10
32.6582166
20
131.629043
40
3.0742781
50
135.6209563
51
138.8377529
0
ARC
8
front_labelLayer
10
32.5773916
20
131.7079324
40
2.9615112
50
138.9575743
51
174.5422303
0
ARC
8
front_labelLayer
10
33.5419123
20
131.5570138
40
3.9364483
50
173.6907646
51
180.0882507
0
ARC
8
front_labelLayer
10
33.4055336
20
131.7840194
40
4.3795989
50
139.4139392
51
150.6032715
0
ARC
8
front_labelLayer
10
32.6202603
20
132.4569162
40
3.3454596
50
124.2321394
51
139.4161176
0
ARC
8
front_labelLayer
10
32.2003894
20
133.0907105
40
2.5852804
50
89.6796567
51
124.4405686
0
ARC
8
front_labelLayer
10
35.5317243
20
131.2011024
40
6.6988966
50
349.1762012
51
0.3862631
0
ARC
8
front_labelLayer
10
37.78709
20
130.7514921
40
4.3992605
50
330.2507006
51
349.4116472
0
ARC
8
front_labelLayer
10
38.4811852
20
130.3907256
40
3.6177637
50
318.1439573
51
329.7566506
0
ARC
8
front_labelLayer
10
38.6064463
20
130.2903412
40
3.4574948
50
278.8959168
51
317.9979082
0
ARC
8
front_labelLayer
10
38.2836668
20
131.8368007
40
5.035898
50
269.7502859
51
279.8033344
0
ARC
8
front_labelLayer
10
38.2313182
20
130.9654679
40
4.1646282
50
253.5436888
51
270.4182458
0
ARC
8
front_labelLayer
10
38.0926904
20
130.4292147
40
3.6111209
50
238.8115736
51
253.2428111
0
ARC
8
front_labelLayer
10
38.0479442
20
130.33923
40
3.5109796
50
207.794703
51
238.6757998
0
ARC
8
front_labelLayer
10
38.6901776
20
130.7325427
40
4.2627938
50
205.6560831
51
208.4460268
0
ARC
8
front_labelLayer
10
39.1844578
20
130.9384725
40
4.7975876
50
188.9102511
51
205.3171429
0
ARC
8
front_labelLayer
10
40.8509625
20
131.2207257
40
6.4877316
50
179.7744682
51
189.0932982
0
ARC
8
front_labelLayer
10
41.0968089
20
131.2918714
40
6.7336821
50
169.2442988
51
180.3880767
0
ARC
8
front_labelLayer
10
38.8101041
20
131.7438699
40
4.4028317
50
150.7111575
51
169.469544
0
ARC
8
front_labelLayer
10
38.0801244
20
132.1187388
40
3.5829056
50
138.1759663
51
150.2287244
0
ARC
8
front_labelLayer
10
37.9586867
20
132.2119275
40
3.4302876
50
99.175932
51
137.9832767
0
ARC
8
front_labelLayer
10
38.2929029
20
130.6390677
40
5.0369378
50
89.7326461
51
100.0759793
0
ARC
8
front_labelLayer
10
38.3596993
20
131.3183313
40
4.3578344
50
73.5222869
51
90.5692168
0
ARC
8
front_labelLayer
10
38.61526
20
132.2468563
40
3.3950052
50
41.1445676
51
73.2133749
0
ARC
8
front_labelLayer
10
38.1274161
20
131.8275608
40
4.0382607
50
13.5014391
51
41.0703471
0
ARC
8
front_labelLayer
10
36.2426384
20
131.3343386
40
5.9862338
50
1.1277169
51
13.8800126
0
ARC
8
front_labelLayer
10
34.6198679
20
131.2473464
40
7.6106009
50
359.9918443
51
1.5420649
0
ARC
8
front_labelLayer
10
42.2742917
20
131.2125589
40
6.567347
50
179.7059517
51
187.9160706
0
ARC
8
front_labelLayer
10
39.8656126
20
130.8665572
40
4.1339827
50
187.7639522
51
200.0976598
0
ARC
8
front_labelLayer
10
38.5386451
20
130.3803555
40
2.7207473
50
200.0845656
51
216.9131853
0
ARC
8
front_labelLayer
10
38.0540987
20
130.034365
40
2.1255753
50
217.3009467
51
261.7099208
0
ARC
8
front_labelLayer
10
38.2790443
20
131.1077729
40
3.2209149
50
260.5033005
51
270.2476987
0
ARC
8
front_labelLayer
10
38.3219802
20
130.8990593
40
3.0123109
50
269.4481787
51
284.7255674
0
ARC
8
front_labelLayer
10
38.5604481
20
130.0146597
40
2.096352
50
284.5662212
51
322.6333896
0
ARC
8
front_labelLayer
10
38.0028989
20
130.4174641
40
2.7840014
50
323.0089322
51
342.6390441
0
ARC
8
front_labelLayer
10
36.4081966
20
130.9386581
40
4.4616269
50
342.3615742
51
353.7537649
0
ARC
8
front_labelLayer
10
34.055476
20
131.2222484
40
6.8312849
50
353.5363074
51
0.2014182
0
ARC
8
front_labelLayer
10
34.415941
20
131.2792887
40
6.470862
50
359.707576
51
7.8972758
0
ARC
8
front_labelLayer
10
36.7857548
20
131.6190237
40
4.0768595
50
7.7439955
51
20.0690237
0
ARC
8
front_labelLayer
10
38.1063107
20
132.1036198
40
2.6701986
50
20.0256779
51
37.4350666
0
ARC
8
front_labelLayer
10
38.5444531
20
132.4145193
40
2.1333995
50
37.957772
51
80.4006157
0
ARC
8
front_labelLayer
10
38.2954668
20
131.3035587
40
3.2708796
50
79.3453667
51
90.3174619
0
ARC
8
front_labelLayer
10
38.2493656
20
131.4881011
40
3.0864138
50
89.480611
51
103.8805101
0
ARC
8
front_labelLayer
10
37.9900262
20
132.4756631
40
2.0655291
50
103.468519
51
142.3118967
0
ARC
8
front_labelLayer
10
38.4942042
20
132.1210894
40
2.6814262
50
142.9025851
51
162.3749443
0
ARC
8
front_labelLayer
10
40.0828449
20
131.5916789
40
4.3558556
50
162.0653062
51
173.1675044
0
ARC
8
front_labelLayer
10
42.5599956
20
131.275731
40
6.8530279
50
173.0086135
51
180.2463718
0
LINE
8
front_labelLayer
10
51.6601562
20
126.9572006
11
50.3632812
21
126.9572006
0
LINE
8
front_labelLayer
10
50.3632812
20
126.9572006
11
50.3632812
21
132.4962631
0
LINE
8
front_labelLayer
10
45.8007812
20
131.4493881
11
45.8007812
21
126.9572006
0
LINE
8
front_labelLayer
10
45.8007812
20
126.9572006
11
44.5039062
21
126.9572006
0
LINE
8
front_labelLayer
10
44.5039062
20
126.9572006
11
44.5039062
21
135.5197006
0
LINE
8
front_labelLayer
10
44.5039062
20
135.5197006
11
45.5585937
21
135.5197006
0
LINE
8
front_labelLayer
10
45.5585937
20
135.5197006
11
45.7695312
21
134.3478256
0
LINE
8
front_labelLayer
10
45.7695312
20
134.3478256
11
45.8320312
21
134.3478256
0
LINE
8
front_labelLayer
10
51.6601562
20
132.5431381
11
51.6601562
21
126.9572006
0
ARC
8
front_labelLayer
10
46.697394
20
132.517287
40
3.6659475
50
359.6714116
51
8.6877042
0
ARC
8
front_labelLayer
10
48.0560918
20
132.7327648
40
2.2903044
50
8.4931757
51
22.6579516
0
ARC
8
front_labelLayer
10
48.7464196
20
133.0196428
40
1.5427422
50
22.7024126
51
42.3419703
0
ARC
8
front_labelLayer
10
48.8240115
20
133.0545453
40
1.4621218
50
43.3790871
51
71.5385936
0
ARC
8
front_labelLayer
10
48.5338488
20
132.2437559
40
2.3231437
50
71.0827949
51
84.3691365
0
ARC
8
front_labelLayer
10
48.4035959
20
131.136317
40
3.4380831
50
84.019775
51
90.1510624
0
ARC
8
front_labelLayer
10
48.3666702
20
130.6494533
40
3.9250337
50
89.5932947
51
100.3718021
0
ARC
8
front_labelLayer
10
48.0892908
20
132.104765
40
2.4435875
50
100.1176314
51
118.16026
0
ARC
8
front_labelLayer
10
47.8097647
20
132.6528938
40
1.8284618
50
118.5439559
51
139.1926609
0
ARC
8
front_labelLayer
10
48.0534983
20
132.489347
40
2.1201243
50
140.1519169
51
160.3146246
0
ARC
8
front_labelLayer
10
49.5253038
20
131.9380702
40
3.6916859
50
159.953415
51
171.3801439
0
ARC
8
front_labelLayer
10
51.9295843
20
131.5515884
40
6.1267728
50
171.1765791
51
178.3217475
0
ARC
8
front_labelLayer
10
54.1091387
20
131.4528184
40
8.3083581
50
178.0811031
51
180.023656
0
ARC
8
front_labelLayer
10
48.0505348
20
132.9427735
40
2.6260102
50
116.9443042
51
147.6525594
0
ARC
8
front_labelLayer
10
48.3238516
20
132.4856473
40
3.1575716
50
115.8072465
51
117.6068589
0
ARC
8
front_labelLayer
10
48.4636054
20
132.1597838
40
3.5118124
50
94.3226832
51
115.5454246
0
ARC
8
front_labelLayer
10
48.5476573
20
131.4295583
40
4.2463935
50
89.9578497
51
94.7109166
0
ARC
8
front_labelLayer
10
48.5824012
20
130.5557636
40
5.1202846
50
80.558539
51
90.353828
0
ARC
8
front_labelLayer
10
48.9023848
20
132.4092366
40
3.23945
50
65.1094469
51
80.763808
0
ARC
8
front_labelLayer
10
49.2764344
20
133.2377493
40
2.3304816
50
46.5584651
51
64.878241
0
ARC
8
front_labelLayer
10
49.3063738
20
133.3240554
40
2.2475445
50
19.3848611
51
45.5997186
0
ARC
8
front_labelLayer
10
48.0060945
20
132.8361669
40
3.6361605
50
6.9633695
51
19.8363429
0
ARC
8
front_labelLayer
10
46.0006456
20
132.5665322
40
5.6595591
50
359.7631642
51
7.211561
0
LINE
8
front_labelLayer
10
58.2617187
20
128.0275131
11
58.2617187
21
127.0353256
0
LINE
8
front_labelLayer
10
54.4179687
20
129.4181381
11
54.4179687
21
134.5118881
0
LINE
8
front_labelLayer
10
54.4179687
20
134.5118881
11
53.1914062
21
134.5118881
0
LINE
8
front_labelLayer
10
53.1914062
20
134.5118881
11
53.1914062
21
135.1368881
0
LINE
8
front_labelLayer
10
53.1914062
20
135.1368881
11
54.4179687
21
135.6759506
0
LINE
8
front_labelLayer
10
54.4179687
20
135.6759506
11
54.9648437
21
137.5040756
0
LINE
8
front_labelLayer
10
54.9648437
20
137.5040756
11
55.7148437
21
137.5040756
0
LINE
8
front_labelLayer
10
55.7148437
20
137.5040756
11
55.7148437
21
135.5197006
0
LINE
8
front_labelLayer
10
55.7148437
20
135.5197006
11
58.1992187
21
135.5197006
0
LINE
8
front_labelLayer
10
58.1992187
20
135.5197006
11
58.1992187
21
134.5118881
0
LINE
8
front_labelLayer
10
58.1992187
20
134.5118881
11
55.7148437
21
134.5118881
0
LINE
8
front_labelLayer
10
55.7148437
20
134.5118881
11
55.7148437
21
129.4728256
0
ARC
8
front_labelLayer
10
57.0987375
20
132.13037
40
4.2591162
50
269.8803567
51
278.3028318
0
ARC
8
front_labelLayer
10
57.1393945
20
131.7984162
40
3.9247782
50
278.4153127
51
279.0079991
0
ARC
8
front_labelLayer
10
56.6612722
20
134.8527022
40
7.0162574
50
278.9590721
51
280.5103649
0
ARC
8
front_labelLayer
10
57.11693
20
132.4078125
40
4.5292706
50
280.4846589
51
282.6269548
0
ARC
8
front_labelLayer
10
57.5162829
20
130.6336615
40
2.7107303
50
282.5876285
51
285.5795817
0
ARC
8
front_labelLayer
10
57.7156452
20
129.9003354
40
1.9508101
50
285.7239904
51
286.255517
0
ARC
8
front_labelLayer
10
57.7164736
20
128.1885515
40
1.2756262
50
287.9888574
51
295.3047808
0
ARC
8
front_labelLayer
10
57.4087985
20
129.1194209
40
2.2560173
50
283.3069695
51
288.1197178
0
ARC
8
front_labelLayer
10
57.0837649
20
130.4752683
40
3.6502763
50
280.0070407
51
283.3734265
0
ARC
8
front_labelLayer
10
56.8665363
20
131.6540659
40
4.8488964
50
279.1861309
51
280.1143916
0
ARC
8
front_labelLayer
10
56.7328338
20
132.4145687
40
5.6210002
50
275.5260636
51
279.2939685
0
ARC
8
front_labelLayer
10
56.8832571
20
130.8434553
40
4.0427032
50
270.8933019
51
275.5483393
0
ARC
8
front_labelLayer
10
56.9021611
20
130.1256334
40
3.3246827
50
270.0031482
51
270.7604232
0
ARC
8
front_labelLayer
10
56.8500108
20
130.1877974
40
3.3872511
50
253.7848117
51
270.8852531
0
ARC
8
front_labelLayer
10
56.4487117
20
128.8192123
40
1.9610501
50
190.3817602
51
253.8772488
0
ARC
8
front_labelLayer
10
58.4941232
20
129.3722561
40
4.0764128
50
179.3550948
51
192.8477675
0
ARC
8
front_labelLayer
10
58.3262607
20
129.4564927
40
2.6114681
50
179.6416537
51
189.7506186
0
ARC
8
front_labelLayer
10
57.4043608
20
129.2920584
40
1.6750477
50
189.5479202
51
205.787396
0
ARC
8
front_labelLayer
10
57.0255001
20
129.117352
40
1.2579354
50
206.1294055
51
221.4084301
0
ARC
8
front_labelLayer
10
56.9830241
20
129.0851214
40
1.2047661
50
221.5949113
51
262.3505133
0
ARC
8
front_labelLayer
10
57.0840559
20
129.6046592
40
1.7334058
50
261.3265906
51
270.1913121
0
LINE
8
left_outsideCutPath
10
87
20
263
11
87
21
238
0
LINE
8
left_outsideCutPath
10
87
20
238
11
83
21
238
0
LINE
8
left_outsideCutPath
10
83
20
238
11
83
21
208
0
LINE
8
left_outsideCutPath
10
83
20
208
11
87
21
208
0
LINE
8
left_outsideCutPath
10
87
20
208
11
87
21
178
0
LINE
8
left_outsideCutPath
10
87
20
178
11
83
21
178
0
LINE
8
left_outsideCutPath
10
83
20
178
11
83
21
148
0
LINE
8
left_outsideCutPath
10
83
20
148
11
87
21
148
0
LINE
8
left_outsideCutPath
10
87
20
148
11
87
21
118
0
LINE
8
left_outsideCutPath
10
87
20
118
11
83
21
118
0
LINE
8
left_outsideCutPath
10
83
20
118
11
83
21
88
0
LINE
8
left_outsideCutPath
10
83
20
88
11
87
21
88
0
LINE
8
left_outsideCutPath
10
87
20
88
11
87
21
58
0
LINE
8
left_outsideCutPath
10
87
20
58
11
83
21
58
0
LINE
8
left_outsideCutPath
10
83
20
58
11
83
21
28
0
LINE
8
left_outsideCutPath
10
83
20
28
11
87
21
28
0
LINE
8
left_outsideCutPath
10
87
20
28
11
87
21
3
0
LINE
8
left_outsideCutPath
10
87
20
3
11
108
21
3
0
LINE
8
left_outsideCutPath
10
108
20
3
11
108
21
7
0
LINE
8
left_outsideCutPath
10
108
20
7
11
138
21
7
0
LINE
8
left_outsideCutPath
10
138
20
7
11
138
21
3
0
LINE
8
left_outsideCutPath
10
138
20
3
11
159
21
3
0
LINE
8
left_outsideCutPath
10
159
20
3
11
159
21
28
0
LINE
8
left_outsideCutPath
10
159
20
28
11
163
21
28
0
LINE
8
left_outsideCutPath
10
163
20
28
11
163
21
58
0
LINE
8
left_outsideCutPath
10
163
20
58
11
159
21
58
0
LINE
8
left_outsideCutPath
10
159
20
58
11
159
21
88
0
LINE
8
left_outsideCutPath
10
159
20
88
11
163
21
88
0
LINE
8
left_outsideCutPath
10
163
20
88
11
163
21
118
0
LINE
8
left_outsideCutPath
10
163
20
118
11
159
21
118
0
LINE
8
left_outsideCutPath
10
159
20
118
11
159
21
148
0
LINE
8
left_outsideCutPath
10
159
20
148
11
163
21
148
0
LINE
8
left_outsideCutPath
10
163
20
148
11
163
21
178
0
LINE
8
left_outsideCutPath
10
163
20
178
11
159
21
178
0
LINE
8
left_outsideCutPath
10
159
20
178
11
159
21
208
0
LINE
8
left_outsideCutPath
10
159
20
208
11
163
21
208
0
LINE
8
left_outsideCutPath
10
163
20
208
11
163
21
238
0
LINE
8
left_outsideCutPath
10
163
20
238
11
159
21
238
0
LINE
8
left_outsideCutPath
10
159
20
238
11
159
21
263
0
LINE
8
left_outsideCutPath
10
159
20
263
11
87
21
263
0
LINE
8
left_labelLayer
10
113.1054687
20
139.1134506
11
113.1054687
21
126.9572006
0
LINE
8
left_labelLayer
10
113.1054687
20
126.9572006
11
111.8085937
21
126.9572006
0
LINE
8
left_labelLayer
10
111.8085937
20
126.9572006
11
111.8085937
21
139.1134506
0
LINE
8
left_labelLayer
10
111.8085937
20
139.1134506
11
113.1054687
21
139.1134506
0
LINE
8
left_labelLayer
10
122.6210937
20
131.8243881
11
122.6210937
21
131.0040756
0
LINE
8
left_labelLayer
10
122.6210937
20
131.0040756
11
116.7226562
21
131.0040756
0
LINE
8
left_labelLayer
10
122.2539062
20
128.5118881
11
122.2539062
21
127.3556381
0
LINE
8
left_labelLayer
10
116.7539062
20
132.0587631
11
121.2304687
21
132.0587631
0
ARC
8
left_labelLayer
10
119.4300144
20
131.8403675
40
5.0395973
50
256.0087887
51
270.4848064
0
ARC
8
left_labelLayer
10
119.0630323
20
130.4156683
40
3.5684575
50
223.546581
51
256.1956972
0
ARC
8
left_labelLayer
10
119.2654777
20
130.5628082
40
3.8167052
50
194.0877221
51
223.0538198
0
ARC
8
left_labelLayer
10
121.1204313
20
131.0700717
40
5.7394841
50
181.3574416
51
194.492008
0
ARC
8
left_labelLayer
10
122.7868246
20
131.1666852
40
7.4079186
50
179.9887624
51
181.7991586
0
ARC
8
left_labelLayer
10
122.1886215
20
131.213818
40
6.8098685
50
168.9539306
51
180.384337
0
ARC
8
left_labelLayer
10
119.9645458
20
131.6666772
40
4.5402673
50
149.407099
51
169.1853769
0
ARC
8
left_labelLayer
10
119.3448797
20
131.9940816
40
3.8403745
50
140.1055981
51
148.9067248
0
ARC
8
left_labelLayer
10
118.9641823
20
132.3450678
40
3.3232742
50
92.4762638
51
140.5386341
0
ARC
8
left_labelLayer
10
119.1338264
20
131.0913766
40
4.584575
50
89.9638531
51
93.9176202
0
ARC
8
left_labelLayer
10
119.1743016
20
131.7250503
40
3.951079
50
74.2125816
51
90.5450092
0
ARC
8
left_labelLayer
10
119.42177
20
132.6368291
40
3.0063826
50
41.206463
51
74.02327
0
ARC
8
left_labelLayer
10
118.9531112
20
132.2312397
40
3.6261674
50
11.5994295
51
41.1495971
0
ARC
8
left_labelLayer
10
117.3428294
20
131.8598771
40
5.2783836
50
359.6147717
51
12.0336471
0
ARC
8
left_labelLayer
10
121.9267976
20
131.1080635
40
5.2051802
50
181.1447181
51
190.8007151
0
ARC
8
left_labelLayer
10
120.0904614
20
130.7458849
40
3.3335253
50
190.6005633
51
206.0275362
0
ARC
8
left_labelLayer
10
119.2780116
20
130.3617939
40
2.4349578
50
206.2950268
51
222.555788
0
ARC
8
left_labelLayer
10
119.2060195
20
130.3240998
40
2.3565271
50
223.0644999
51
258.1401381
0
ARC
8
left_labelLayer
10
119.4926151
20
131.5041862
40
3.5705247
50
257.5311794
51
270.4319235
0
ARC
8
left_labelLayer
10
119.4958132
20
134.7832357
40
6.8495137
50
270.1984007
51
292.2090359
0
ARC
8
left_labelLayer
10
119.1669244
20
135.7277974
40
7.8484906
50
291.8254572
51
293.1613457
0
ARC
8
left_labelLayer
10
119.1511213
20
134.4962712
40
7.7856224
50
287.9023213
51
293.48616
0
ARC
8
left_labelLayer
10
119.7159104
20
132.7537039
40
5.9538134
50
281.9935777
51
287.8851313
0
ARC
8
left_labelLayer
10
119.8527925
20
132.2617099
40
5.4442069
50
275.9054295
51
281.6604142
0
ARC
8
left_labelLayer
10
119.5787734
20
134.8194219
40
8.0165437
50
271.9119759
51
275.9726852
0
ARC
8
left_labelLayer
10
119.478762
20
137.3666423
40
10.5656934
50
269.9668897
51
271.993156
0
ARC
8
left_labelLayer
10
119.096208
20
132.0336893
40
2.556445
50
89.4422454
51
106.2089578
0
ARC
8
left_labelLayer
10
118.9424107
20
132.5944614
40
1.9750522
50
106.4657151
51
137.9176226
0
ARC
8
left_labelLayer
10
119.3833534
20
132.2072406
40
2.5618396
50
138.0994689
51
160.5866322
0
ARC
8
left_labelLayer
10
120.5168025
20
131.7902634
40
3.7694782
50
160.3353337
51
172.531508
0
ARC
8
left_labelLayer
10
121.6328169
20
131.6114472
40
4.8993735
50
172.1544908
51
174.761564
0
ARC
8
left_labelLayer
10
116.811265
20
132.0838688
40
4.419275
50
359.674503
51
8.9224676
0
ARC
8
left_labelLayer
10
118.390363
20
132.3411598
40
2.8193955
50
8.7342269
51
23.2771893
0
ARC
8
left_labelLayer
10
119.1400258
20
132.6558478
40
2.0064068
50
23.4821663
51
39.7071787
0
ARC
8
left_labelLayer
10
119.3241761
20
132.7936517
40
1.7767365
50
40.0822817
51
80.6243333
0
ARC
8
left_labelLayer
10
119.1346316
20
131.9247833
40
2.6652641
50
79.6468551
51
90.2910274
0
LINE
8
left_labelLayer
10
128.6914062
20
135.5197006
11
128.6914062
21
134.5118881
0
LINE
8
left_labelLayer
10
128.6914062
20
134.5118881
11
126.5117187
21
134.5118881
0
LINE
8
left_labelLayer
10
126.5117187
20
134.5118881
11
126.5117187
21
126.9572006
0
LINE
8
left_labelLayer
10
126.5117187
20
126.9572006
11
125.2148437
21
126.9572006
0
LINE
8
left_labelLayer
10
125.2148437
20
126.9572006
11
125.2148437
21
134.5118881
0
LINE
8
left_labelLayer
10
125.2148437
20
134.5118881
11
123.6835937
21
134.5118881
0
LINE
8
left_labelLayer
10
123.6835937
20
134.5118881
11
123.6835937
21
135.0978256
0
LINE
8
left_labelLayer
10
123.6835937
20
135.0978256
11
125.2148437
21
135.5665756
0
LINE
8
left_labelLayer
10
125.2148437
20
135.5665756
11
125.2148437
21
136.0431381
0
LINE
8
left_labelLayer
10
129.5664062
20
138.9259506
11
129.2304687
21
137.8868881
0
LINE
8
left_labelLayer
10
126.5117187
20
136.0743881
11
126.5117187
21
135.5197006
0
LINE
8
left_labelLayer
10
126.5117187
20
135.5197006
11
128.6914062
21
135.5197006
0
ARC
8
left_labelLayer
10
130.4706372
20
136.1035605
40
5.2561408
50
167.5776172
51
180.6586624
0
ARC
8
left_labelLayer
10
127.9990211
20
136.6797966
40
2.7186086
50
141.7433936
51
168.2322161
0
ARC
8
left_labelLayer
10
127.596594
20
136.8898326
40
2.2741143
50
98.2551559
51
139.620331
0
ARC
8
left_labelLayer
10
127.9499323
20
135.2575413
40
3.9419123
50
89.669706
51
99.9314304
0
ARC
8
left_labelLayer
10
127.9509169
20
135.0232213
40
4.1762233
50
81.5640647
51
89.7017457
0
ARC
8
left_labelLayer
10
127.6573158
20
132.9748926
40
6.2454708
50
75.9739961
51
81.6564686
0
ARC
8
left_labelLayer
10
127.1535158
20
130.8852287
40
8.3949538
50
73.2963503
51
76.0946352
0
ARC
8
left_labelLayer
10
127.2803462
20
131.8987709
40
6.2976603
50
71.9613634
51
76.5918041
0
ARC
8
left_labelLayer
10
127.7689489
20
133.971466
40
4.1681641
50
76.5183113
51
83.0217261
0
ARC
8
left_labelLayer
10
127.9391256
20
135.3400328
40
2.7890612
50
83.0760593
51
89.7926562
0
ARC
8
left_labelLayer
10
127.933527
20
136.3801656
40
1.7489804
50
89.48594
51
103.4197374
0
ARC
8
left_labelLayer
10
127.7758433
20
136.9859702
40
1.1231938
50
102.7677284
51
144.3380381
0
ARC
8
left_labelLayer
10
128.0935123
20
136.7815803
40
1.5005723
50
145.0689034
51
162.1801816
0
ARC
8
left_labelLayer
10
129.1826737
20
136.415132
40
2.6496677
50
161.8437745
51
171.7847177
0
ARC
8
left_labelLayer
10
130.9591524
20
136.1483106
40
4.4460553
50
171.6527938
51
178.438324
0
ARC
8
left_labelLayer
10
132.6344185
20
136.0768704
40
6.1227002
50
178.1972851
51
180.023229
0
LINE
8
left_labelLayer
10
134.1914062
20
128.0275131
11
134.1914062
21
127.0353256
0
LINE
8
left_labelLayer
10
130.3476562
20
129.4181381
11
130.3476562
21
134.5118881
0
LINE
8
left_labelLayer
10
130.3476562
20
134.5118881
11
129.1210937
21
134.5118881
0
LINE
8
left_labelLayer
10
129.1210937
20
134.5118881
11
129.1210937
21
135.1368881
0
LINE
8
left_labelLayer
10
129.1210937
20
135.1368881
11
130.3476562
21
135.6759506
0
LINE
8
left_labelLayer
10
130.3476562
20
135.6759506
11
130.8945312
21
137.5040756
0
LINE
8
left_labelLayer
10
130.8945312
20
137.5040756
11
131.6445312
21
137.5040756
0
LINE
8
left_labelLayer
10
131.6445312
20
137.5040756
11
131.6445312
21
135.5197006
0
LINE
8
left_labelLayer
10
131.6445312
20
135.5197006
11
134.1289062
21
135.5197006
0
LINE
8
left_labelLayer
10
134.1289062
20
135.5197006
11
134.1289062
21
134.5118881
0
LINE
8
left_labelLayer
10
134.1289062
20
134.5118881
11
131.6445312
21
134.5118881
0
LINE
8
left_labelLayer
10
131.6445312
20
134.5118881
11
131.6445312
21
129.4728256
0
ARC
8
left_labelLayer
10
133.028425
20
132.13037
40
4.2591162
50
269.8803567
51
278.3028318
0
ARC
8
left_labelLayer
10
133.069082
20
131.7984162
40
3.9247782
50
278.4153127
51
279.0079991
0
ARC
8
left_labelLayer
10
132.5909597
20
134.8527022
40
7.0162574
50
278.9590721
51
280.5103649
0
ARC
8
left_labelLayer
10
133.0466175
20
132.4078125
40
4.5292706
50
280.4846589
51
282.6269548
0
ARC
8
left_labelLayer
10
133.4459704
20
130.6336615
40
2.7107303
50
282.5876285
51
285.5795817
0
ARC
8
left_labelLayer
10
133.6453327
20
129.9003354
40
1.9508101
50
285.7239904
51
286.255517
0
ARC
8
left_labelLayer
10
133.6461611
20
128.1885515
40
1.2756262
50
287.9888574
51
295.3047808
0
ARC
8
left_labelLayer
10
133.338486
20
129.1194209
40
2.2560173
50
283.3069695
51
288.1197178
0
ARC
8
left_labelLayer
10
133.0134524
20
130.4752683
40
3.6502763
50
280.0070407
51
283.3734265
0
ARC
8
left_labelLayer
10
132.7962238
20
131.6540659
40
4.8488964
50
279.1861309
51
280.1143916
0
ARC
8
left_labelLayer
10
132.6625213
20
132.4145687
40
5.6210002
50
275.5260636
51
279.2939685
0
ARC
8
left_labelLayer
10
132.8129446
20
130.8434553
40
4.0427032
50
270.8933019
51
275.5483393
0
ARC
8
left_labelLayer
10
132.8318486
20
130.1256334
40
3.3246827
50
270.0031482
51
270.7604232
0
ARC
8
left_labelLayer
10
132.7796983
20
130.1877974
40
3.3872511
50
253.7848117
51
270.8852531
0
ARC
8
left_labelLayer
10
132.3783992
20
128.8192123
40
1.9610501
50
190.3817602
51
253.8772488
0
ARC
8
left_labelLayer
10
134.4238107
20
129.3722561
40
4.0764128
50
179.3550948
51
192.8477675
0
ARC
8
left_labelLayer
10
134.2559482
20
129.4564927
40
2.6114681
50
179.6416537
51
189.7506186
0
ARC
8
left_labelLayer
10
133.3340483
20
129.2920584
40
1.6750477
50
189.5479202
51
205.787396
0
ARC
8
left_labelLayer
10
132.9551876
20
129.117352
40
1.2579354
50
206.1294055
51
221.4084301
0
ARC
8
left_labelLayer
10
132.9127116
20
129.0851214
40
1.2047661
50
221.5949113
51
262.3505133
0
ARC
8
left_labelLayer
10
133.0137434
20
129.6046592
40
1.7334058
50
261.3265906
51
270.1913121
0
LINE
8
back_outsideCutPath
10
0
20
526
11
0
21
501
0
LINE
8
back_outsideCutPath
10
0
20
501
11
4
21
501
0
LINE
8
back_outsideCutPath
10
4
20
501
11
4
21
471
0
LINE
8
back_outsideCutPath
10
4
20
471
11
0
21
471
0
LINE
8
back_outsideCutPath
10
0
20
471
11
0
21
441
0
LINE
8
back_outsideCutPath
10
0
20
441
11
4
21
441
0
LINE
8
back_outsideCutPath
10
4
20
441
11
4
21
411
0
LINE
8
back_outsideCutPath
10
4
20
411
11
0
21
411
0
LINE
8
back_outsideCutPath
10
0
20
411
11
0
21
381
0
LINE
8
back_outsideCutPath
10
0
20
381
11
4
21
381
0
LINE
8
back_outsideCutPath
10
4
20
381
11
4
21
351
0
LINE
8
back_outsideCutPath
10
4
20
351
11
0
21
351
0
LINE
8
back_outsideCutPath
10
0
20
351
11
0
21
321
0
LINE
8
back_outsideCutPath
10
0
20
321
11
4
21
321
0
LINE
8
back_outsideCutPath
10
4
20
321
11
4
21
291
0
LINE
8
back_outsideCutPath
10
4
20
291
11
0
21
291
0
LINE
8
back_outsideCutPath
10
0
20
291
11
0
21
266
0
LINE
8
back_outsideCutPath
10
0
20
266
11
25
21
266
0
LINE
8
back_outsideCutPath
10
25
20
266
11
25
21
270
0
LINE
8
back_outsideCutPath
10
25
20
270
11
55
21
270
0
LINE
8
back_outsideCutPath
10
55
20
270
11
55
21
266
0
LINE
8
back_outsideCutPath
10
55
20
266
11
80
21
266
0
LINE
8
back_outsideCutPath
10
80
20
266
11
80
21
291
0
LINE
8
back_outsideCutPath
10
80
20
291
11
76
21
291
0
LINE
8
back_outsideCutPath
10
76
20
291
11
76
21
321
0
LINE
8
back_outsideCutPath
10
76
20
321
11
80
21
321
0
LINE
8
back_outsideCutPath
10
80
20
321
11
80
21
351
0
LINE
8
back_outsideCutPath
10
80
20
351
11
76
21
351
0
LINE
8
back_outsideCutPath
10
76
20
351
11
76
21
381
0
LINE
8
back_outsideCutPath
10
76
20
381
11
80
21
381
0
LINE
8
back_outsideCutPath
10
80
20
381
11
80
21
411
0
LINE
8
back_outsideCutPath
10
80
20
411
11
76
21
411
0
LINE
8
back_outsideCutPath
10
76
20
411
11
76
21
441
0
LINE
8
back_outsideCutPath
10
76
20
441
11
80
21
441
0
LINE
8
back_outsideCutPath
10
80
20
441
11
80
21
471
0
LINE
8
back_outsideCutPath
10
80
20
471
11
76
21
471
0
LINE
8
back_outsideCutPath
10
76
20
471
11
76
21
501
0
LINE
8
back_outsideCutPath
10
76
20
501
11
80
21
501
0
LINE
8
back_outsideCutPath
10
80
20
501
11
80
21
526
0
LINE
8
back_outsideCutPath
10
80
20
526
11
0
21
526
0
LINE
8
back_labelLayer
10
24.7109375
20
391.1016508
11
24.6171875
21
391.1016508
0
LINE
8
back_labelLayer
10
24.6171875
20
391.1016508
11
24.34375
21
390.0000883
0
LINE
8
back_labelLayer
10
24.34375
20
390.0000883
11
23.4140625
21
390.0000883
0
LINE
8
back_labelLayer
10
23.4140625
20
390.0000883
11
23.4140625
21
402.1563383
0
LINE
8
back_labelLayer
10
23.4140625
20
402.1563383
11
24.7109375
21
402.1563383
0
LINE
8
back_labelLayer
10
24.7109375
20
402.1563383
11
24.7109375
21
399.2032133
0
LINE
8
back_labelLayer
10
24.6484375
20
397.4219633
11
24.7109375
21
397.4219633
0
ARC
8
back_labelLayer
10
27.437342
20
394.739703
40
3.9637012
50
74.2393355
51
90.5623777
0
ARC
8
back_labelLayer
10
27.6994354
20
395.7012043
40
2.9671715
50
38.5631327
51
74.0670403
0
ARC
8
back_labelLayer
10
27.0249501
20
395.1767534
40
3.8215107
50
16.4709337
51
38.4075242
0
ARC
8
back_labelLayer
10
25.0818729
20
394.5674602
40
5.8576984
50
5.1338399
51
16.7973508
0
ARC
8
back_labelLayer
10
22.6288439
20
394.3068839
40
8.3243
50
359.8779435
51
5.4093499
0
ARC
8
back_labelLayer
10
23.3493623
20
394.2442908
40
7.603895
50
350.6562921
51
0.3380242
0
ARC
8
back_labelLayer
10
26.0002174
20
393.7934105
40
4.9150291
50
335.8305902
51
350.8254897
0
ARC
8
back_labelLayer
10
27.1662731
20
393.2901235
40
3.645173
50
321.3161354
51
335.5436222
0
ARC
8
back_labelLayer
10
27.6120598
20
392.9268742
40
3.070154
50
274.0640117
51
321.4080996
0
ARC
8
back_labelLayer
10
27.4043833
20
394.2423878
40
4.3985534
50
269.9225498
51
275.5481397
0
ARC
8
back_labelLayer
10
27.3765682
20
393.777481
40
3.9337035
50
255.7755313
51
270.3185353
0
ARC
8
back_labelLayer
10
27.2643121
20
393.278741
40
3.4226987
50
245.9801827
51
255.5455802
0
ARC
8
back_labelLayer
10
27.0468796
20
392.7730971
40
2.8723436
50
215.5850144
51
245.836166
0
ARC
8
back_labelLayer
10
-2.3280537
20
399.1803603
40
27.0390009
50
358.1123208
51
0.0484255
0
ARC
8
back_labelLayer
10
5.197585
20
398.9276989
40
19.509124
50
355.7238617
51
358.125912
0
ARC
8
back_labelLayer
10
8.5659926
20
398.6957991
40
16.1328142
50
355.4712507
51
355.6531662
0
ARC
8
back_labelLayer
10
27.1295529
20
395.735398
40
2.9485933
50
95.1835142
51
145.1109036
0
ARC
8
back_labelLayer
10
27.3887245
20
394.2739011
40
4.4293229
50
89.8743571
51
96.8145377
0
ARC
8
back_labelLayer
10
27.1837876
20
393.9730382
40
3.6443387
50
89.5731496
51
100.7324069
0
ARC
8
back_labelLayer
10
26.9140051
20
395.3360804
40
2.2549278
50
100.4469488
51
119.6700771
0
ARC
8
back_labelLayer
10
26.6638368
20
395.8038007
40
1.7247538
50
120.1403097
51
142.4248986
0
ARC
8
back_labelLayer
10
27.0777185
20
395.5300042
40
2.2200212
50
143.3382198
51
161.2559897
0
ARC
8
back_labelLayer
10
28.8085021
20
394.9155166
40
4.0565517
50
160.8926173
51
171.2334205
0
ARC
8
back_labelLayer
10
31.6978449
20
394.4493973
40
6.9832099
50
171.066774
51
177.8456894
0
ARC
8
back_labelLayer
10
34.7027297
20
394.296573
40
9.9917947
50
177.6176947
51
180.0425612
0
ARC
8
back_labelLayer
10
33.2856736
20
394.2556657
40
8.5748015
50
179.7762566
51
185.7075354
0
ARC
8
back_labelLayer
10
29.904955
20
393.9073314
40
5.1762112
50
185.5924958
51
194.2050777
0
ARC
8
back_labelLayer
10
27.739281
20
393.3452627
40
2.9388586
50
193.9430359
51
208.0218247
0
ARC
8
back_labelLayer
10
26.86305
20
392.8995026
40
1.9560119
50
208.553694
51
217.5605201
0
ARC
8
back_labelLayer
10
26.79165
20
392.869802
40
1.8814131
50
218.1690368
51
253.8047259
0
ARC
8
back_labelLayer
10
27.1406147
20
393.9456917
40
3.0121421
50
253.1382275
51
266.8483353
0
ARC
8
back_labelLayer
10
27.238472
20
395.0997263
40
4.1699521
50
266.3775733
51
270.0510514
0
ARC
8
back_labelLayer
10
27.2698518
20
393.514935
40
2.5853072
50
269.3868901
51
285.8630675
0
ARC
8
back_labelLayer
10
27.4619235
20
392.8207611
40
1.865075
50
286.0162924
51
326.8497277
0
ARC
8
back_labelLayer
10
26.5348827
20
393.434891
40
2.9770675
50
326.7105112
51
343.6661763
0
ARC
8
back_labelLayer
10
24.7995256
20
393.9651593
40
4.7915591
50
343.4171428
51
353.6369302
0
ARC
8
back_labelLayer
10
22.1784469
20
394.2761705
40
7.4309831
50
353.4934758
51
0.2205584
0
ARC
8
back_labelLayer
10
21.9473612
20
394.3357881
40
7.6620766
50
359.7680941
51
6.3095149
0
ARC
8
back_labelLayer
10
24.8335244
20
394.6669905
40
4.7570119
50
6.164876
51
16.0396504
0
ARC
8
back_labelLayer
10
26.6927267
20
395.2148969
40
2.8188287
50
15.7779603
51
32.0151253
0
ARC
8
back_labelLayer
10
27.2725859
20
395.5469741
40
2.1512681
50
32.7032831
51
35.5242599
0
ARC
8
back_labelLayer
10
27.4845392
20
395.6976218
40
1.8912323
50
35.5408432
51
79.8011227
0
ARC
8
back_labelLayer
10
27.2305662
20
394.6179309
40
2.9994091
50
78.6781377
51
90.374958
0
LINE
8
back_labelLayer
10
39.4453125
20
390.0000883
11
38.484375
21
390.0000883
0
LINE
8
back_labelLayer
10
38.484375
20
390.0000883
11
38.2265625
21
391.2188383
0
LINE
8
back_labelLayer
10
38.2265625
20
391.2188383
11
38.1640625
21
391.2188383
0
LINE
8
back_labelLayer
10
36.7265625
20
395.0860258
11
38.1796875
21
395.1329008
0
LINE
8
back_labelLayer
10
38.1796875
20
395.1329008
11
38.1796875
21
395.6641508
0
LINE
8
back_labelLayer
10
33.9375
20
396.9766508
11
33.5390625
21
397.9688383
0
LINE
8
back_labelLayer
10
39.4453125
20
395.8438383
11
39.4453125
21
390.0000883
0
LINE
8
back_labelLayer
10
38.1484375
20
393.4375883
11
38.1484375
21
394.2110258
0
LINE
8
back_labelLayer
10
38.1484375
20
394.2110258
11
36.8515625
21
394.1563383
0
ARC
8
back_labelLayer
10
33.9445474
20
394.5503505
40
5.3761772
50
314.744501
51
321.7071925
0
ARC
8
back_labelLayer
10
35.2653835
20
393.2082781
40
3.4931745
50
304.8485642
51
314.8530758
0
ARC
8
back_labelLayer
10
35.8998915
20
392.3051221
40
2.3894266
50
294.3932745
51
304.7371393
0
ARC
8
back_labelLayer
10
35.6831142
20
392.8668124
40
2.990704
50
281.2979802
51
293.7313404
0
ARC
8
back_labelLayer
10
35.3965509
20
394.2556588
40
4.4087869
50
272.9335335
51
281.4138906
0
ARC
8
back_labelLayer
10
35.301566
20
395.6802818
40
5.8364454
50
269.9539485
51
273.1490324
0
ARC
8
back_labelLayer
10
35.2687614
20
393.8236843
40
3.9799453
50
258.6719908
51
270.4047305
0
ARC
8
back_labelLayer
10
34.9923079
20
392.5012371
40
2.6289828
50
238.3272929
51
258.9183814
0
ARC
8
back_labelLayer
10
34.8018004
20
392.1536802
40
2.2332544
50
227.7689535
51
237.8050163
0
ARC
8
back_labelLayer
10
34.742211
20
392.0704933
40
2.1316406
50
192.0827614
51
227.4520703
0
ARC
8
back_labelLayer
10
35.8411915
20
392.3414031
40
3.263169
50
179.5457148
51
192.6949391
0
ARC
8
back_labelLayer
10
34.8202474
20
392.4595557
40
2.2440206
50
115.4904586
51
182.3568144
0
ARC
8
back_labelLayer
10
35.944078
20
390.3982202
40
4.5901181
50
101.3568219
51
117.0798687
0
ARC
8
back_labelLayer
10
36.8466195
20
386.1805535
40
8.9030951
50
92.4696359
51
101.7064824
0
ARC
8
back_labelLayer
10
37.1059999
20
382.4238704
40
12.6678391
50
91.7164266
51
92.9095602
0
ARC
8
back_labelLayer
10
34.4548199
20
395.6840892
40
3.724921
50
359.6933106
51
8.0035887
0
ARC
8
back_labelLayer
10
35.8638889
20
395.8893634
40
2.3010067
50
7.8272241
51
20.60421
0
ARC
8
back_labelLayer
10
36.6612426
20
396.194393
40
1.4473221
50
20.4094038
51
41.4479286
0
ARC
8
back_labelLayer
10
36.779055
20
396.2591502
40
1.3164787
50
42.7295592
51
71.0380164
0
ARC
8
back_labelLayer
10
36.5016858
20
395.504974
40
2.1199278
50
70.5716549
51
83.9928397
0
ARC
8
back_labelLayer
10
36.3691774
20
394.4285931
40
3.2043227
50
83.6506973
51
90.1752755
0
ARC
8
back_labelLayer
10
36.3924225
20
393.4106911
40
4.222339
50
90.4484491
51
103.7665485
0
ARC
8
back_labelLayer
10
36.8889543
20
391.3168038
40
6.3742538
50
103.6226692
51
112.4319945
0
ARC
8
back_labelLayer
10
37.7400766
20
389.1677989
40
8.685491
50
112.2122504
51
115.9640993
0
ARC
8
back_labelLayer
10
36.3770759
20
392.7057775
40
5.9794756
50
106.3568562
51
118.3349892
0
ARC
8
back_labelLayer
10
36.6317591
20
391.919069
40
6.806105
50
104.5162192
51
106.5489878
0
ARC
8
back_labelLayer
10
36.4449898
20
392.6972373
40
6.0059807
50
90.0714512
51
104.6521049
0
ARC
8
back_labelLayer
10
36.4685596
20
393.2260051
40
5.4772962
50
81.5679904
51
90.3249037
0
ARC
8
back_labelLayer
10
36.7852487
20
395.2891534
40
3.3900283
50
68.2273435
51
81.74942
0
ARC
8
back_labelLayer
10
37.2263449
20
396.386638
40
2.2072231
50
47.8683207
51
68.2934232
0
ARC
8
back_labelLayer
10
37.2979348
20
396.5295812
40
2.0536365
50
19.2331075
51
46.6741254
0
ARC
8
back_labelLayer
10
36.1053378
20
396.085935
40
3.3259144
50
6.3379308
51
19.6815078
0
ARC
8
back_labelLayer
10
34.342418
20
395.8614122
40
5.1029248
50
359.8026789
51
6.6583549
0
ARC
8
back_labelLayer
10
35.5809121
20
394.4847245
40
3.5706701
50
269.5791896
51
282.0413583
0
ARC
8
back_labelLayer
10
35.8413675
20
393.3294553
40
2.3865236
50
281.7120852
51
306.4594002
0
ARC
8
back_labelLayer
10
35.9568549
20
393.1395312
40
2.1652352
50
306.9880866
51
313.8558897
0
ARC
8
back_labelLayer
10
35.9431183
20
393.1355918
40
2.1719485
50
314.1891913
51
347.4269947
0
ARC
8
back_labelLayer
10
34.8551347
20
393.4082366
40
3.2933221
50
346.917751
51
0.2824611
0
ARC
8
back_labelLayer
10
34.0181153
20
393.4375803
40
4.1303221
50
359.8181646
51
0.0001108
0
ARC
8
back_labelLayer
10
37.1600506
20
384.6389339
40
9.5224026
50
91.8564807
51
96.447853
0
ARC
8
back_labelLayer
10
36.7306215
20
388.3548998
40
5.7817255
50
96.3545638
51
102.995324
0
ARC
8
back_labelLayer
10
36.1476914
20
390.8315964
40
3.2373956
50
102.7995497
51
113.2433252
0
ARC
8
back_labelLayer
10
35.6671505
20
391.9808688
40
1.9917986
50
113.5887
51
121.6804922
0
ARC
8
back_labelLayer
10
35.3332737
20
392.4893564
40
1.3838402
50
120.9734174
51
172.4179646
0
ARC
8
back_labelLayer
10
35.9858639
20
392.3590078
40
2.0483771
50
171.21224
51
180.2057854
0
ARC
8
back_labelLayer
10
35.7908282
20
392.3363382
40
1.8533915
50
179.5266212
51
192.7786986
0
ARC
8
back_labelLayer
10
35.1638531
20
392.1843582
40
1.2083673
50
192.3264618
51
222.0580029
0
ARC
8
back_labelLayer
10
35.1172563
20
392.1565089
40
1.1551632
50
222.5806518
51
229.2545181
0
ARC
8
back_labelLayer
10
35.2748053
20
392.3593582
40
1.4117376
50
229.7836767
51
254.2724618
0
ARC
8
back_labelLayer
10
35.4846962
20
393.0587983
40
2.1419217
50
253.9396806
51
266.4533432
0
ARC
8
back_labelLayer
10
35.5516803
20
393.8309041
40
2.9167548
50
266.0782961
51
270.0590717
0
LINE
8
back_labelLayer
10
47.828125
20
398.2735258
11
47.4296875
21
397.1719633
0
LINE
8
back_labelLayer
10
47.703125
20
391.4375883
11
47.703125
21
390.2891508
0
ARC
8
back_labelLayer
10
45.4976974
20
394.6906054
40
4.8469436
50
256.4243796
51
270.4889831
0
ARC
8
back_labelLayer
10
45.1103806
20
393.17894
40
3.2866697
50
221.797623
51
256.8020567
0
ARC
8
back_labelLayer
10
45.4854523
20
393.4560666
40
3.7512434
50
196.0166605
51
221.134924
0
ARC
8
back_labelLayer
10
47.3705225
20
394.0322425
40
5.7222138
50
183.5913699
51
196.3539657
0
ARC
8
back_labelLayer
10
49.4822654
20
394.2182848
40
7.8416451
50
179.9388733
51
183.981523
0
ARC
8
back_labelLayer
10
48.796123
20
394.2727211
40
7.1556463
50
169.8978391
51
180.3688908
0
ARC
8
back_labelLayer
10
46.3050768
20
394.733529
40
4.6224227
50
153.087513
51
170.1051457
0
ARC
8
back_labelLayer
10
45.3599274
20
395.1851471
40
3.5753066
50
138.65502
51
152.6853568
0
ARC
8
back_labelLayer
10
45.1835208
20
395.3137002
40
3.3580086
50
101.4912937
51
138.3133938
0
ARC
8
back_labelLayer
10
45.5884995
20
393.6282151
40
5.0907539
50
89.5891877
51
102.1787594
0
ARC
8
back_labelLayer
10
45.6196403
20
392.8664087
40
5.852432
50
77.7702433
51
89.9475283
0
ARC
8
back_labelLayer
10
45.5088702
20
392.2553123
40
6.4731597
50
74.6796763
51
77.9578351
0
ARC
8
back_labelLayer
10
46.1072129
20
394.4229958
40
4.2244186
50
70.0945995
51
74.7386074
0
ARC
8
back_labelLayer
10
46.6763724
20
395.9827863
40
2.5640387
50
63.5034352
51
70.186143
0
ARC
8
back_labelLayer
10
46.9534656
20
396.5622718
40
1.9218271
50
62.9274303
51
63.1890112
0
ARC
8
back_labelLayer
10
45.2992482
20
391.8103844
40
5.7693413
50
68.329454
51
74.8831167
0
ARC
8
back_labelLayer
10
44.9949478
20
390.7313979
40
6.8903597
50
74.7801514
51
77.4498037
0
ARC
8
back_labelLayer
10
45.3144419
20
392.2311055
40
5.3570801
50
77.2998698
51
81.7344998
0
ARC
8
back_labelLayer
10
45.547519
20
393.8551702
40
3.7163789
50
81.6910228
51
87.5079043
0
ARC
8
back_labelLayer
10
45.5924877
20
394.6956827
40
2.8747184
50
87.6749117
51
89.9748404
0
ARC
8
back_labelLayer
10
45.5294596
20
394.6944609
40
2.8766584
50
88.7193918
51
112.5667637
0
ARC
8
back_labelLayer
10
45.325054
20
395.3702796
40
2.1752882
50
114.426576
51
161.6632836
0
ARC
8
back_labelLayer
10
47.3556271
20
394.575492
40
4.354333
50
160.1418491
51
175.1368161
0
ARC
8
back_labelLayer
10
50.1504247
20
394.2616575
40
7.1660758
50
174.5309836
51
180.1549654
0
ARC
8
back_labelLayer
10
49.2650073
20
394.2098417
40
6.280716
50
179.7041193
51
188.0743586
0
ARC
8
back_labelLayer
10
47.0027758
20
393.8788535
40
3.9944332
50
187.9315202
51
200.3885256
0
ARC
8
back_labelLayer
10
45.7795609
20
393.4257169
40
2.6899851
50
200.4183561
51
216.6392776
0
ARC
8
back_labelLayer
10
45.2667604
20
393.0591284
40
2.059773
50
216.9695397
51
261.3103027
0
ARC
8
back_labelLayer
10
45.4930705
20
394.1142285
40
3.1376124
50
260.1359577
51
270.2692033
0
ARC
8
back_labelLayer
10
45.4826241
20
396.4054627
40
5.4288704
50
270.2658364
51
286.2891501
0
ARC
8
back_labelLayer
10
45.1525956
20
397.63626
40
6.7028899
50
286.0460515
51
292.3653954
0
ARC
8
back_labelLayer
10
46.0315177
20
393.5776008
40
3.6889259
50
282.0344333
51
296.9454504
0
ARC
8
back_labelLayer
10
45.6521335
20
395.2873478
40
5.4402178
50
272.5980667
51
282.1878304
0
ARC
8
back_labelLayer
10
45.5433399
20
396.956003
40
7.112166
50
269.9655414
51
272.8642614
0
LINE
8
back_labelLayer
10
50.953125
20
394.3829008
11
51.015625
21
394.3829008
0
LINE
8
back_labelLayer
10
52.0390625
20
395.6329008
11
54.8046875
21
398.5625883
0
LINE
8
back_labelLayer
10
54.8046875
20
398.5625883
11
56.34375
21
398.5625883
0
LINE
8
back_labelLayer
10
56.34375
20
398.5625883
11
52.875
21
394.9141508
0
LINE
8
back_labelLayer
10
52.875
20
394.9141508
11
56.5859375
21
390.0000883
0
LINE
8
back_labelLayer
10
56.5859375
20
390.0000883
11
55.015625
21
390.0000883
0
LINE
8
back_labelLayer
10
55.015625
20
390.0000883
11
51.9921875
21
394.0469633
0
LINE
8
back_labelLayer
10
51.9921875
20
394.0469633
11
51.015625
21
393.2032133
0
LINE
8
back_labelLayer
10
51.015625
20
393.2032133
11
51.015625
21
390.0000883
0
LINE
8
back_labelLayer
10
51.015625
20
390.0000883
11
49.734375
21
390.0000883
0
LINE
8
back_labelLayer
10
49.734375
20
390.0000883
11
49.734375
21
402.1563383
0
LINE
8
back_labelLayer
10
49.734375
20
402.1563383
11
51.015625
21
402.1563383
0
LINE
8
back_labelLayer
10
51.015625
20
402.1563383
11
51.015625
21
395.7110258
0
ARC
8
back_labelLayer
10
57.2822224
20
389.9471286
40
7.6776506
50
142.3234142
51
144.7074679
0
ARC
8
back_labelLayer
10
61.3703143
20
386.7938784
40
12.8405449
50
140.4330905
51
142.3365467
0
ARC
8
back_labelLayer
10
66.6976098
20
382.408592
40
19.7405962
50
139.2798732
51
140.4703567
0
ARC
8
back_labelLayer
10
72.8568447
20
377.1121191
40
27.8639447
50
138.341738
51
139.2877753
0
ARC
8
back_labelLayer
10
42.372827
20
395.7272072
40
8.6428132
50
358.2739867
51
359.8927286
0
ARC
8
back_labelLayer
10
35.649482
20
395.9145839
40
15.3687589
50
357.5041774
51
358.3307124
0
ARC
8
back_labelLayer
10
25.586549
20
396.3590531
40
25.441502
50
356.6325368
51
357.4910219
0
ARC
8
back_labelLayer
10
8.8627908
20
397.3344256
40
42.1936778
50
356.0329088
51
356.6442918
0
ARC
8
back_labelLayer
10
-3.2914187
20
398.1563118
40
54.3756301
50
356.0207462
51
356.0549878
0
LINE
8
right_outsideCutPath
10
87
20
526
11
87
21
501
0
LINE
8
right_outsideCutPath
10
87
20
501
11
83
21
501
0
LINE
8
right_outsideCutPath
10
83
20
501
11
83
21
471
0
LINE
8
right_outsideCutPath
10
83
20
471
11
87
21
471
0
LINE
8
right_outsideCutPath
10
87
20
471
11
87
21
441
0
LINE
8
right_outsideCutPath
10
87
20
441
11
83
21
441
0
LINE
8
right_outsideCutPath
10
83
20
441
11
83
21
411
0
LINE
8
right_outsideCutPath
10
83
20
411
11
87
21
411
0
LINE
8
right_outsideCutPath
10
87
20
411
11
87
21
381
0
LINE
8
right_outsideCutPath
10
87
20
381
11
83
21
381
0
LINE
8
right_outsideCutPath
10
83
20
381
11
83
21
351
0
LINE
8
right_outsideCutPath
10
83
20
351
11
87
21
351
0
LINE
8
right_outsideCutPath
10
87
20
351
11
87
21
321
0
LINE
8
right_outsideCutPath
10
87
20
321
11
83
21
321
0
LINE
8
right_outsideCutPath
10
83
20
321
11
83
21
291
0
LINE
8
right_outsideCutPath
10
83
20
291
11
87
21
291
0
LINE
8
right_outsideCutPath
10
87
20
291
11
87
21
266
0
LINE
8
right_outsideCutPath
10
87
20
266
11
108
21
266
0
LINE
8
right_outsideCutPath
10
108
20
266
11
108
21
270
0
LINE
8
right_outsideCutPath
10
108
20
270
11
138
21
270
0
LINE
8
right_outsideCutPath
10
138
20
270
11
138
21
266
0
LINE
8
right_outsideCutPath
10
138
20
266
11
159
21
266
0
LINE
8
right_outsideCutPath
10
159
20
266
11
159
21
291
0
LINE
8
right_outsideCutPath
10
159
20
291
11
163
21
291
0
LINE
8
right_outsideCutPath
10
163
20
291
11
163
21
321
0
LINE
8
right_outsideCutPath
10
163
20
321
11
159
21
321
0
LINE
8
right_outsideCutPath
10
159
20
321
11
159
21
351
0
LINE
8
right_outsideCutPath
10
159
20
351
11
163
21
351
0
LINE
8
right_outsideCutPath
10
163
20
351
11
163
21
381
0
LINE
8
right_outsideCutPath
10
163
20
381
11
159
21
381
0
LINE
8
right_outsideCutPath
10
159
20
381
11
159
21
411
0
LINE
8
right_outsideCutPath
10
159
20
411
11
163
21
411
0
LINE
8
right_outsideCutPath
10
163
20
411
11
163
21
441
0
LINE
8
right_outsideCutPath
10
163
20
441
11
159
21
441
0
LINE
8
right_outsideCutPath
10
159
20
441
11
159
21
471
0
LINE
8
right_outsideCutPath
10
159
20
471
11
163
21
471
0
LINE
8
right_outsideCutPath
10
163
20
471
11
163
21
501
0
LINE
8
right_outsideCutPath
10
163
20
501
11
159
21
501
0
LINE
8
right_outsideCutPath
10
159
20
501
11
159
21
526
0
LINE
8
right_outsideCutPath
10
159
20
526
11
87
21
526
0
LINE
8
right_labelLayer
10
111.3789062
20
400.4687972
11
111.1992187
21
399.2656722
0
LINE
8
right_labelLayer
10
107.7460937
20
396.4375472
11
107.7460937
21
391.8437972
0
LINE
8
right_labelLayer
10
107.7460937
20
391.8437972
11
106.4492187
21
391.8437972
0
LINE
8
right_labelLayer
10
106.4492187
20
391.8437972
11
106.4492187
21
400.4062972
0
LINE
8
right_labelLayer
10
106.4492187
20
400.4062972
11
107.5195312
21
400.4062972
0
LINE
8
right_labelLayer
10
107.5195312
20
400.4062972
11
107.6679687
21
398.8203597
0
LINE
8
right_labelLayer
10
107.6679687
20
398.8203597
11
107.7304687
21
398.8203597
0
ARC
8
right_labelLayer
10
110.368778
20
394.6088114
40
5.9537507
50
84.9922713
51
90.1280813
0
ARC
8
right_labelLayer
10
110.5117686
20
396.2108072
40
4.3453892
50
78.4891492
51
85.0266376
0
ARC
8
right_labelLayer
10
109.9567974
20
393.6866322
40
5.7157063
50
77.4454105
51
81.6360423
0
ARC
8
right_labelLayer
10
110.2058256
20
395.4031613
40
3.9812118
50
81.5884353
51
87.1916597
0
ARC
8
right_labelLayer
10
110.2599127
20
396.3411176
40
3.0417427
50
87.3436103
51
89.9659798
0
ARC
8
right_labelLayer
10
110.2473465
20
397.1358053
40
2.2471004
50
89.6335396
51
137.0880816
0
ARC
8
right_labelLayer
10
110.7988416
20
396.5156396
40
3.0742781
50
135.6209563
51
138.8377529
0
ARC
8
right_labelLayer
10
110.7180166
20
396.5945291
40
2.9615112
50
138.9575743
51
174.5422303
0
ARC
8
right_labelLayer
10
111.6825373
20
396.4436104
40
3.9364483
50
173.6907646
51
180.0882507
0
ARC
8
right_labelLayer
10
111.5461586
20
396.6706161
40
4.3795989
50
139.4139392
51
150.6032715
0
ARC
8
right_labelLayer
10
110.7608853
20
397.3435128
40
3.3454596
50
124.2321394
51
139.4161176
0
ARC
8
right_labelLayer
10
110.3410144
20
397.9773072
40
2.5852804
50
89.6796567
51
124.4405686
0
LINE
8
right_labelLayer
10
114.2773437
20
400.4062972
11
114.2773437
21
391.8437972
0
LINE
8
right_labelLayer
10
114.2773437
20
391.8437972
11
112.9804687
21
391.8437972
0
LINE
8
right_labelLayer
10
112.9804687
20
391.8437972
11
112.9804687
21
400.4062972
0
LINE
8
right_labelLayer
10
112.9804687
20
400.4062972
11
114.2773437
21
400.4062972
0
ARC
8
right_labelLayer
10
114.3081669
20
402.7354996
40
1.4371007
50
170.8451929
51
180.3544315
0
ARC
8
right_labelLayer
10
113.7701749
20
402.8254528
40
0.8916556
50
155.9678998
51
171.0515555
0
ARC
8
right_labelLayer
10
113.5095949
20
402.9410573
40
0.6065839
50
133.7879925
51
155.9171675
0
ARC
8
right_labelLayer
10
113.6057995
20
402.8346989
40
0.7499489
50
92.6445887
51
133.4710399
0
ARC
8
right_labelLayer
10
113.6361844
20
402.5960776
40
0.9899071
50
89.9690735
51
93.7642022
0
ARC
8
right_labelLayer
10
113.6485596
20
402.8219743
40
0.7641022
50
46.3708172
51
90.8879144
0
ARC
8
right_labelLayer
10
113.7246062
20
402.9004823
40
0.6548059
50
17.7251796
51
46.4473337
0
ARC
8
right_labelLayer
10
113.3699893
20
402.7783644
40
1.0298013
50
4.9427697
51
18.1901489
0
ARC
8
right_labelLayer
10
112.9188279
20
402.7295911
40
1.483519
50
359.8848562
51
5.3181586
0
ARC
8
right_labelLayer
10
113.0605614
20
402.7174979
40
1.3418133
50
349.8344934
51
0.3890796
0
ARC
8
right_labelLayer
10
113.5490648
20
402.6263685
40
0.8449019
50
332.6321368
51
350.0706105
0
ARC
8
right_labelLayer
10
113.7391968
20
402.5324804
40
0.6329031
50
313.6152591
51
332.2678043
0
ARC
8
right_labelLayer
10
113.6475614
20
402.6159169
40
0.7565724
50
269.1788465
51
314.2807503
0
ARC
8
right_labelLayer
10
113.6281238
20
402.6831763
40
0.8237989
50
250.5000121
51
270.5977978
0
ARC
8
right_labelLayer
10
113.6031927
20
402.5899514
40
0.7276391
50
225.1300958
51
249.9001432
0
ARC
8
right_labelLayer
10
113.5641581
20
402.5468322
40
0.6695468
50
197.7933368
51
224.8942189
0
ARC
8
right_labelLayer
10
113.9294965
20
402.672029
40
1.0556946
50
184.9925847
51
198.2039809
0
ARC
8
right_labelLayer
10
114.4022404
20
402.7234176
40
1.5311501
50
179.8805501
51
185.3687451
0
LINE
8
right_labelLayer
10
121.0742187
20
400.4062972
11
124.0351562
21
400.4062972
0
LINE
8
right_labelLayer
10
124.0351562
20
400.4062972
11
124.0351562
21
399.5859847
0
LINE
8
right_labelLayer
10
124.0351562
20
399.5859847
11
122.4492187
21
399.3984847
0
LINE
8
right_labelLayer
10
119.5273437
20
393.2031722
11
121.0429687
21
393.2031722
0
LINE
8
right_labelLayer
10
120.6289062
20
392.0391097
11
119.0742187
21
392.0391097
0
ARC
8
right_labelLayer
10
120.7965438
20
398.090578
40
2.1075944
50
29.4584503
51
38.3576618
0
ARC
8
right_labelLayer
10
119.9353363
20
397.5989478
40
3.0992419
50
23.1845468
51
29.5422589
0
ARC
8
right_labelLayer
10
119.1137129
20
397.2345829
40
3.997977
50
21.2506013
51
23.3489421
0
ARC
8
right_labelLayer
10
120.5103557
20
397.7900321
40
2.4950053
50
6.8504661
51
20.9871833
0
ARC
8
right_labelLayer
10
119.8076721
20
397.6947585
40
3.2040547
50
359.8710468
51
7.043209
0
ARC
8
right_labelLayer
10
120.0388561
20
397.6566341
40
2.9730234
50
342.5649681
51
0.5957656
0
ARC
8
right_labelLayer
10
120.5871686
20
397.5052245
40
2.4046177
50
310.6097915
51
342.0923649
0
ARC
8
right_labelLayer
10
120.2796934
20
397.8628758
40
2.8762692
50
284.9315958
51
310.6222661
0
ARC
8
right_labelLayer
10
119.894926
20
399.2111523
40
4.2782306
50
272.5334874
51
285.257981
0
ARC
8
right_labelLayer
10
119.7959975
20
400.5624296
40
5.6326958
50
269.9691918
51
272.9312255
0
ARC
8
right_labelLayer
10
119.7837217
20
399.0976939
40
4.1679694
50
263.4836818
51
270.1271167
0
ARC
8
right_labelLayer
10
119.7158285
20
398.4528333
40
3.5195747
50
259.4963872
51
263.3904314
0
ARC
8
right_labelLayer
10
120.1360125
20
392.9432613
40
2.3077474
50
117.3935386
51
128.4095155
0
ARC
8
right_labelLayer
10
119.5418999
20
393.6803012
40
1.3611225
50
128.0881541
51
147.1400821
0
ARC
8
right_labelLayer
10
119.2218386
20
393.8950864
40
0.9757549
50
147.5369311
51
180.2591968
0
ARC
8
right_labelLayer
10
118.9181982
20
393.8823655
40
0.6721558
50
179.2919037
51
198.3580538
0
ARC
8
right_labelLayer
10
118.7923489
20
393.8492907
40
0.542357
50
199.2291328
51
239.5690824
0
ARC
8
right_labelLayer
10
118.89664
20
393.9933755
40
0.7196154
50
238.2197804
51
239.8457862
0
ARC
8
right_labelLayer
10
118.9799393
20
394.1647152
40
0.9097208
50
240.7302085
51
254.5027038
0
ARC
8
right_labelLayer
10
119.2282352
20
395.0203392
40
1.8006114
50
254.1637543
51
262.2122782
0
ARC
8
right_labelLayer
10
119.4249069
20
396.3940342
40
3.1882982
50
262.0556165
51
267.208298
0
ARC
8
right_labelLayer
10
119.5199076
20
398.1365818
40
4.933415
50
267.0919627
51
270.0863618
0
ARC
8
right_labelLayer
10
121.0713167
20
387.8945827
40
5.3086652
50
81.5744238
51
90.3059577
0
ARC
8
right_labelLayer
10
121.3625093
20
389.793685
40
3.3874073
50
68.3671507
51
81.7399229
0
ARC
8
right_labelLayer
10
121.7428324
20
390.7656539
40
2.3436946
50
52.1879889
51
68.250086
0
ARC
8
right_labelLayer
10
122.0089568
20
391.1242404
40
1.8972723
50
8.6201351
51
51.89825
0
ARC
8
right_labelLayer
10
121.0762671
20
390.9268894
40
2.8495428
50
359.7430385
51
9.7326771
0
ARC
8
right_labelLayer
10
121.1180204
20
390.8788164
40
2.8079827
50
340.526895
51
0.7201648
0
ARC
8
right_labelLayer
10
121.5305815
20
390.7760948
40
2.385124
50
302.9903657
51
339.5494486
0
ARC
8
right_labelLayer
10
121.0968278
20
391.3274373
40
3.0844033
50
303.1871841
51
304.1720914
0
ARC
8
right_labelLayer
10
120.6938786
20
392.0252533
40
3.8892184
50
286.2542334
51
302.5279886
0
ARC
8
right_labelLayer
10
119.9593661
20
394.4480175
40
6.4207897
50
276.4939817
51
286.4953634
0
ARC
8
right_labelLayer
10
119.5010716
20
398.2790928
40
10.27914
50
269.754519
51
276.616965
0
ARC
8
right_labelLayer
10
119.4228045
20
395.2660136
40
7.266047
50
262.5634723
51
270.2698931
0
ARC
8
right_labelLayer
10
119.0669263
20
392.6282606
40
4.6044344
50
251.2101967
51
262.7064032
0
ARC
8
right_labelLayer
10
118.5539897
20
391.1227131
40
3.0139072
50
235.9668198
51
251.2228927
0
ARC
8
right_labelLayer
10
118.0103184
20
390.3471061
40
2.0669386
50
208.9036318
51
236.4231403
0
ARC
8
right_labelLayer
10
118.0602294
20
390.3261833
40
2.1009483
50
182.2079869
51
207.7461442
0
ARC
8
right_labelLayer
10
118.6955548
20
390.3896418
40
2.7385237
50
179.9784403
51
183.0225986
0
ARC
8
right_labelLayer
10
117.9397103
20
390.4254623
40
1.9829843
50
138.3916098
51
181.0052659
0
ARC
8
right_labelLayer
10
118.1491178
20
390.2372671
40
2.2645275
50
113.8121522
51
138.3496162
0
ARC
8
right_labelLayer
10
118.546334
20
389.3795116
40
3.209683
50
102.2870796
51
114.1172833
0
ARC
8
right_labelLayer
10
118.4215194
20
393.7404376
40
1.3459867
50
216.5861569
51
245.496887
0
ARC
8
right_labelLayer
10
118.6140814
20
393.9038198
40
1.5980715
50
215.4650037
51
217.1747538
0
ARC
8
right_labelLayer
10
118.2932597
20
393.6720951
40
1.2023267
50
182.176738
51
215.341565
0
ARC
8
right_labelLayer
10
118.578807
20
393.7027444
40
1.4889633
50
179.9835356
51
182.9379593
0
ARC
8
right_labelLayer
10
118.5728419
20
393.7157087
40
1.4830512
50
161.7226054
51
180.4843365
0
ARC
8
right_labelLayer
10
118.4097847
20
393.7602003
40
1.3142969
50
144.4963456
51
161.3350191
0
ARC
8
right_labelLayer
10
118.8444611
20
393.4362386
40
1.8563345
50
132.7259622
51
144.1478835
0
ARC
8
right_labelLayer
10
119.5410741
20
392.6923387
40
2.875464
50
125.2212378
51
132.8655697
0
ARC
8
right_labelLayer
10
120.241454
20
391.7197763
40
4.0739299
50
121.235226
51
125.3794755
0
ARC
8
right_labelLayer
10
118.9998718
20
397.3032541
40
2.273527
50
215.1640816
51
247.4747799
0
ARC
8
right_labelLayer
10
119.4242324
20
397.6457383
40
2.8179126
50
212.4714458
51
215.8876443
0
ARC
8
right_labelLayer
10
119.3126631
20
397.5659132
40
2.6809398
50
183.0160878
51
212.3123137
0
ARC
8
right_labelLayer
10
119.9009668
20
397.6314828
40
3.2720607
50
179.9758883
51
183.6206412
0
ARC
8
right_labelLayer
10
120.3756656
20
397.6645064
40
3.7468931
50
166.8195799
51
180.4839318
0
ARC
8
right_labelLayer
10
119.1326701
20
397.9783361
40
2.4651825
50
132.3287668
51
167.3340932
0
ARC
8
right_labelLayer
10
119.2989662
20
397.7392997
40
2.7541439
50
106.2188878
51
131.5377583
0
ARC
8
right_labelLayer
10
119.7197248
20
396.3769186
40
4.1798918
50
93.6329621
51
106.5408733
0
ARC
8
right_labelLayer
10
119.8570887
20
394.8347394
40
5.7278113
50
89.9380554
51
94.0267682
0
ARC
8
right_labelLayer
10
119.8793263
20
395.591578
40
4.9709951
50
82.5852046
51
90.1849366
0
ARC
8
right_labelLayer
10
120.0312173
20
396.7667871
40
3.7860118
50
74.0088933
51
82.5694379
0
ARC
8
right_labelLayer
10
118.5094072
20
390.3885832
40
1.3024964
50
179.2207509
51
200.9355353
0
ARC
8
right_labelLayer
10
118.3545155
20
390.3527191
40
1.1452237
50
202.0287142
51
236.1457385
0
ARC
8
right_labelLayer
10
118.5878986
20
390.6490381
40
1.5215892
50
235.0634381
51
238.5043421
0
ARC
8
right_labelLayer
10
118.8593419
20
391.1338565
40
2.07691
50
239.1066155
51
254.4862901
0
ARC
8
right_labelLayer
10
119.2211812
20
392.3814711
40
3.3758836
50
254.23242
51
263.493734
0
ARC
8
right_labelLayer
10
119.4484706
20
394.3065962
40
5.31437
50
263.4108694
51
270.1457266
0
ARC
8
right_labelLayer
10
119.4727768
20
395.7596661
40
6.7674314
50
269.9086509
51
269.9989793
0
ARC
8
right_labelLayer
10
119.5037351
20
397.7104715
40
8.7182921
50
269.7957526
51
275.399099
0
ARC
8
right_labelLayer
10
119.8300386
20
394.3606521
40
5.3526404
50
275.2956694
51
283.3516212
0
ARC
8
right_labelLayer
10
120.3616399
20
392.1710973
40
3.0995274
50
283.1370677
51
295.8572972
0
ARC
8
right_labelLayer
10
120.7555665
20
391.3111115
40
2.1539354
50
296.4047126
51
301.8009312
0
ARC
8
right_labelLayer
10
120.9099833
20
391.0982769
40
1.8917739
50
301.2230791
51
318.6238183
0
ARC
8
right_labelLayer
10
121.2583125
20
390.7765111
40
1.4177497
50
319.076571
51
1.1406841
0
ARC
8
right_labelLayer
10
120.9211934
20
390.8186339
40
1.7546429
50
359.5461357
51
10.9904663
0
ARC
8
right_labelLayer
10
121.5989561
20
390.9564899
40
1.0630471
50
10.6608729
51
30.9361845
0
ARC
8
right_labelLayer
10
121.8138489
20
391.0757479
40
0.8174573
50
31.5095576
51
58.0777843
0
ARC
8
right_labelLayer
10
121.612437
20
390.7151094
40
1.2302138
50
58.9972938
51
73.8585538
0
ARC
8
right_labelLayer
10
121.2053507
20
389.3824247
40
2.6236161
50
73.4100051
51
81.5907063
0
ARC
8
right_labelLayer
10
120.8604296
20
387.1503104
40
4.8821968
50
81.4172473
51
86.5756881
0
ARC
8
right_labelLayer
10
120.6490577
20
383.7872833
40
8.2518511
50
86.5054136
51
90.1399198
0
ARC
8
right_labelLayer
10
119.0556705
20
389.0580318
40
2.9811356
50
89.6435107
51
100.0209151
0
ARC
8
right_labelLayer
10
118.8683008
20
390.0773054
40
1.9448212
50
99.8102765
51
116.8229441
0
ARC
8
right_labelLayer
10
118.6857787
20
390.4622181
40
1.5190009
50
117.2304074
51
130.5023697
0
ARC
8
right_labelLayer
10
118.592071
20
390.5826534
40
1.366581
50
130.7944675
51
169.0413539
0
ARC
8
right_labelLayer
10
119.2821654
20
390.4201329
40
2.0751804
50
168.258042
51
180.3820061
0
ARC
8
right_labelLayer
10
120.441551
20
397.6447475
40
2.5314689
50
179.5617623
51
191.6528991
0
ARC
8
right_labelLayer
10
119.5613873
20
397.4545849
40
1.6310585
50
191.3555142
51
213.3660418
0
ARC
8
right_labelLayer
10
119.350017
20
397.3325379
40
1.3874773
50
213.9574036
51
227.7971475
0
ARC
8
right_labelLayer
10
119.533914
20
397.5555765
40
1.6762873
50
228.2620793
51
254.7341324
0
ARC
8
right_labelLayer
10
119.7688549
20
398.3609601
40
2.5151544
50
254.4016616
51
267.4348652
0
ARC
8
right_labelLayer
10
119.8301488
20
399.1828995
40
3.3391029
50
267.0153825
51
270.0323008
0
ARC
8
right_labelLayer
10
119.8702124
20
398.6688433
40
2.825304
50
269.2256806
51
284.3773355
0
ARC
8
right_labelLayer
10
120.2552971
20
397.3272068
40
1.4306228
50
282.7796707
51
346.482841
0
ARC
8
right_labelLayer
10
119.1039949
20
397.6533216
40
2.626697
50
345.436203
51
0.7465812
0
ARC
8
right_labelLayer
10
118.9421573
20
397.7274248
40
2.7885965
50
359.1806304
51
15.0431588
0
ARC
8
right_labelLayer
10
120.2057212
20
398.0960192
40
1.472933
50
13.9535587
51
77.6673824
0
ARC
8
right_labelLayer
10
119.843192
20
396.7968647
40
2.8205822
50
76.1095214
51
90.702828
0
ARC
8
right_labelLayer
10
119.7889282
20
396.8961017
40
2.7212041
50
89.585933
51
101.3334316
0
ARC
8
right_labelLayer
10
119.5944607
20
397.8236205
40
1.7735754
50
101.0620341
51
121.9739369
0
ARC
8
right_labelLayer
10
119.4577899
20
398.0694781
40
1.4927134
50
122.5210462
51
134.9966636
0
ARC
8
right_labelLayer
10
119.5140639
20
398.0357619
40
1.5564268
50
135.5839955
51
163.0015957
0
ARC
8
right_labelLayer
10
120.3359731
20
397.7663688
40
2.4212471
50
162.5911911
51
175.7343166
0
ARC
8
right_labelLayer
10
121.3217514
20
397.6692564
40
3.411599
50
175.3393144
51
180.0864358
0
LINE
8
right_labelLayer
10
132.9492187
20
391.8437972
11
131.6523437
21
391.8437972
0
LINE
8
right_labelLayer
10
131.6523437
20
391.8437972
11
131.6523437
21
397.3828597
0
LINE
8
right_labelLayer
10
127.0898437
20
396.3203597
11
127.0898437
21
391.8437972
0
LINE
8
right_labelLayer
10
127.0898437
20
391.8437972
11
125.7929687
21
391.8437972
0
LINE
8
right_labelLayer
10
125.7929687
20
391.8437972
11
125.7929687
21
404.0000472
0
LINE
8
right_labelLayer
10
125.7929687
20
404.0000472
11
127.0898437
21
404.0000472
0
LINE
8
right_labelLayer
10
127.0898437
20
404.0000472
11
127.0898437
21
400.3203597
0
LINE
8
right_labelLayer
10
127.0273437
20
399.2187972
11
127.1054687
21
399.2187972
0
LINE
8
right_labelLayer
10
132.9492187
20
397.4297347
11
132.9492187
21
391.8437972
0
ARC
8
right_labelLayer
10
127.9864565
20
397.4038836
40
3.6659475
50
359.6714116
51
8.6877042
0
ARC
8
right_labelLayer
10
129.3451543
20
397.6193614
40
2.2903044
50
8.4931757
51
22.6579516
0
ARC
8
right_labelLayer
10
130.0354821
20
397.9062394
40
1.5427422
50
22.7024126
51
42.3419703
0
ARC
8
right_labelLayer
10
130.113074
20
397.941142
40
1.4621218
50
43.3790871
51
71.5385936
0
ARC
8
right_labelLayer
10
129.8229113
20
397.1303525
40
2.3231437
50
71.0827949
51
84.3691365
0
ARC
8
right_labelLayer
10
129.6926584
20
396.0229136
40
3.4380831
50
84.019775
51
90.1510624
0
ARC
8
right_labelLayer
10
129.655644
20
395.5365547
40
3.9245296
50
89.5919476
51
100.3595233
0
ARC
8
right_labelLayer
10
129.3777499
20
396.9969205
40
2.4380212
50
100.1067709
51
118.0847553
0
ARC
8
right_labelLayer
10
129.0951111
20
397.5515243
40
1.8156989
50
118.455102
51
139.6706198
0
ARC
8
right_labelLayer
10
129.3788632
20
397.3575747
40
2.1578307
50
140.6208173
51
160.504905
0
ARC
8
right_labelLayer
10
130.8745556
20
396.8038746
40
3.7526286
50
160.1567147
51
171.5312662
0
ARC
8
right_labelLayer
10
133.2945992
20
396.4204475
40
6.2027942
50
171.3202239
51
178.3406613
0
ARC
8
right_labelLayer
10
135.4594264
20
396.3237197
40
8.3695834
50
178.1079017
51
180.0230012
0
ARC
8
right_labelLayer
10
115.4236682
20
400.3064532
40
11.6661838
50
357.8673888
51
0.0682986
0
ARC
8
right_labelLayer
10
119.3868423
20
400.1552436
40
7.7001288
50
354.9828242
51
357.8943641
0
ARC
8
right_labelLayer
10
122.0038286
20
399.9273649
40
5.0732409
50
351.9713841
51
354.9618031
0
ARC
8
right_labelLayer
10
129.302156
20
397.844693
40
2.591061
50
119.8316015
51
147.9725895
0
ARC
8
right_labelLayer
10
129.6159366
20
397.3626548
40
3.1654817
50
116.6658266
51
120.4182537
0
ARC
8
right_labelLayer
10
129.674488
20
397.2088316
40
3.3292632
50
96.6652506
51
116.3782524
0
ARC
8
right_labelLayer
10
129.800712
20
396.3379553
40
4.2089742
50
89.8927082
51
96.9959023
0
ARC
8
right_labelLayer
10
129.8410764
20
395.2854172
40
5.2616053
50
80.6863017
51
90.3537198
0
ARC
8
right_labelLayer
10
130.1686974
20
397.2124381
40
3.3069859
50
65.6022778
51
80.8843931
0
ARC
8
right_labelLayer
10
130.5621156
20
398.0985005
40
2.337553
50
46.7400626
51
65.4130959
0
ARC
8
right_labelLayer
10
130.588853
20
398.1829223
40
2.2580756
50
19.220418
51
45.7660846
0
ARC
8
right_labelLayer
10
129.2868274
20
397.7002503
40
3.6465232
50
6.4733797
51
19.6468024
0
ARC
8
right_labelLayer
10
127.3412945
20
397.4498481
40
5.6079603
50
359.7945043
51
6.7744037
0
LINE
8
right_labelLayer
10
139.5507812
20
392.9141097
11
139.5507812
21
391.9219222
0
LINE
8
right_labelLayer
10
135.7070312
20
394.3047347
11
135.7070312
21
399.3984847
0
LINE
8
right_labelLayer
10
135.7070312
20
399.3984847
11
134.4804687
21
399.3984847
0
LINE
8
right_labelLayer
10
134.4804687
20
399.3984847
11
134.4804687
21
400.0234847
0
LINE
8
right_labelLayer
10
134.4804687
20
400.0234847
11
135.7070312
21
400.5625472
0
LINE
8
right_labelLayer
10
135.7070312
20
400.5625472
11
136.2539062
21
402.3906722
0
LINE
8
right_labelLayer
10
136.2539062
20
402.3906722
11
137.0039062
21
402.3906722
0
LINE
8
right_labelLayer
10
137.0039062
20
402.3906722
11
137.0039062
21
400.4062972
0
LINE
8
right_labelLayer
10
137.0039062
20
400.4062972
11
139.4882812
21
400.4062972
0
LINE
8
right_labelLayer
10
139.4882812
20
400.4062972
11
139.4882812
21
399.3984847
0
LINE
8
right_labelLayer
10
139.4882812
20
399.3984847
11
137.0039062
21
399.3984847
0
LINE
8
right_labelLayer
10
137.0039062
20
399.3984847
11
137.0039062
21
394.3594222
0
ARC
8
right_labelLayer
10
138.3878
20
397.0169667
40
4.2591162
50
269.8803567
51
278.3028318
0
ARC
8
right_labelLayer
10
138.428457
20
396.6850128
40
3.9247782
50
278.4153127
51
279.0079991
0
ARC
8
right_labelLayer
10
137.9503347
20
399.7392989
40
7.0162574
50
278.9590721
51
280.5103649
0
ARC
8
right_labelLayer
10
138.4059925
20
397.2944091
40
4.5292706
50
280.4846589
51
282.6269548
0
ARC
8
right_labelLayer
10
138.8053454
20
395.5202581
40
2.7107303
50
282.5876285
51
285.5795817
0
ARC
8
right_labelLayer
10
139.0047077
20
394.786932
40
1.9508101
50
285.7239904
51
286.255517
0
ARC
8
right_labelLayer
10
139.0055361
20
393.0751481
40
1.2756262
50
287.9888574
51
295.3047808
0
ARC
8
right_labelLayer
10
138.697861
20
394.0060175
40
2.2560173
50
283.3069695
51
288.1197178
0
ARC
8
right_labelLayer
10
138.3728274
20
395.3618649
40
3.6502763
50
280.0070407
51
283.3734265
0
ARC
8
right_labelLayer
10
138.1555988
20
396.5406625
40
4.8488964
50
279.1861309
51
280.1143916
0
ARC
8
right_labelLayer
10
138.0218963
20
397.3011653
40
5.6210002
50
275.5260636
51
279.2939685
0
ARC
8
right_labelLayer
10
138.1723196
20
395.7300519
40
4.0427032
50
270.8933019
51
275.5483393
0
ARC
8
right_labelLayer
10
138.1912236
20
395.01223
40
3.3246827
50
270.0031482
51
270.7604232
0
ARC
8
right_labelLayer
10
138.1390733
20
395.0743941
40
3.3872511
50
253.7848117
51
270.8852531
0
ARC
8
right_labelLayer
10
137.7377742
20
393.7058089
40
1.9610501
50
190.3817602
51
253.8772488
0
ARC
8
right_labelLayer
10
139.7831857
20
394.2588527
40
4.0764128
50
179.3550948
51
192.8477675
0
ARC
8
right_labelLayer
10
139.6153232
20
394.3430894
40
2.6114681
50
179.6416537
51
189.7506186
0
ARC
8
right_labelLayer
10
138.6934233
20
394.178655
40
1.6750477
50
189.5479202
51
205.787396
0
ARC
8
right_labelLayer
10
138.3145626
20
394.0039486
40
1.2579354
50
206.1294055
51
221.4084301
0
ARC
8
right_labelLayer
10
138.2720866
20
393.971718
40
1.2047661
50
221.5949113
51
262.3505133
0
ARC
8
right_labelLayer
10
138.3731184
20
394.4912558
40
1.7334058
50
261.3265906
51
270.1913121
0
LINE
8
bottom_outsideCutPath
10
170
20
79
11
170
21
58
0
LINE
8
bottom_outsideCutPath
10
170
20
58
11
166
21
58
0
LINE
8
bottom_outsideCutPath
10
166
20
58
11
166
21
28
0
LINE
8
bottom_outsideCutPath
10
166
20
28
11
170
21
28
0
LINE
8
bottom_outsideCutPath
10
170
20
28
11
170
21
7
0
LINE
8
bottom_outsideCutPath
10
170
20
7
11
191
21
7
0
LINE
8
bottom_outsideCutPath
10
191
20
7
11
191
21
3
0
LINE
8
bottom_outsideCutPath
10
191
20
3
11
221
21
3
0
LINE
8
bottom_outsideCutPath
10
221
20
3
11
221
21
7
0
LINE
8
bottom_outsideCutPath
10
221
20
7
11
242
21
7
0
LINE
8
bottom_outsideCutPath
10
242
20
7
11
242
21
28
0
LINE
8
bottom_outsideCutPath
10
242
20
28
11
246
21
28
0
LINE
8
bottom_outsideCutPath
10
246
20
28
11
246
21
58
0
LINE
8
bottom_outsideCutPath
10
246
20
58
11
242
21
58
0
LINE
8
bottom_outsideCutPath
10
242
20
58
11
242
21
79
0
LINE
8
bottom_outsideCutPath
10
242
20
79
11
221
21
79
0
LINE
8
bottom_outsideCutPath
10
221
20
79
11
221
21
83
0
LINE
8
bottom_outsideCutPath
10
221
20
83
11
191
21
83
0
LINE
8
bottom_outsideCutPath
10
191
20
83
11
191
21
79
0
LINE
8
bottom_outsideCutPath
10
191
20
79
11
170
21
79
0
LINE
8
bottom_labelLayer
10
180.9765246
20
38.1017646
11
180.8827746
21
38.1017646
0
LINE
8
bottom_labelLayer
10
180.8827746
20
38.1017646
11
180.6093371
21
37.0002021
0
LINE
8
bottom_labelLayer
10
180.6093371
20
37.0002021
11
179.6796496
21
37.0002021
0
LINE
8
bottom_labelLayer
10
179.6796496
20
37.0002021
11
179.6796496
21
49.1564521
0
LINE
8
bottom_labelLayer
10
179.6796496
20
49.1564521
11
180.9765246
21
49.1564521
0
LINE
8
bottom_labelLayer
10
180.9765246
20
49.1564521
11
180.9765246
21
46.2033271
0
LINE
8
bottom_labelLayer
10
180.9140246
20
44.4220771
11
180.9765246
21
44.4220771
0
ARC
8
bottom_labelLayer
10
183.7029291
20
41.7398169
40
3.9637012
50
74.2393355
51
90.5623777
0
ARC
8
bottom_labelLayer
10
183.9650226
20
42.7013182
40
2.9671715
50
38.5631327
51
74.0670403
0
ARC
8
bottom_labelLayer
10
183.2905372
20
42.1768673
40
3.8215107
50
16.4709337
51
38.4075242
0
ARC
8
bottom_labelLayer
10
181.34746
20
41.5675741
40
5.8576984
50
5.1338399
51
16.7973508
0
ARC
8
bottom_labelLayer
10
178.894431
20
41.3069978
40
8.3243
50
359.8779435
51
5.4093499
0
ARC
8
bottom_labelLayer
10
179.6149494
20
41.2444047
40
7.603895
50
350.6562921
51
0.3380242
0
ARC
8
bottom_labelLayer
10
182.2658045
20
40.7935244
40
4.9150291
50
335.8305902
51
350.8254897
0
ARC
8
bottom_labelLayer
10
183.4318603
20
40.2902374
40
3.645173
50
321.3161354
51
335.5436222
0
ARC
8
bottom_labelLayer
10
183.8776469
20
39.9269881
40
3.070154
50
274.0640117
51
321.4080996
0
ARC
8
bottom_labelLayer
10
183.6699704
20
41.2425017
40
4.3985534
50
269.9225498
51
275.5481397
0
ARC
8
bottom_labelLayer
10
183.6421554
20
40.7775949
40
3.9337035
50
255.7755313
51
270.3185353
0
ARC
8
bottom_labelLayer
10
183.5298992
20
40.2788549
40
3.4226987
50
245.9801827
51
255.5455802
0
ARC
8
bottom_labelLayer
10
183.3124667
20
39.773211
40
2.8723436
50
215.5850144
51
245.836166
0
ARC
8
bottom_labelLayer
10
153.9375334
20
46.1804742
40
27.0390009
50
358.1123208
51
0.0484255
0
ARC
8
bottom_labelLayer
10
161.4631722
20
45.9278128
40
19.509124
50
355.7238617
51
358.125912
0
ARC
8
bottom_labelLayer
10
164.8315797
20
45.695913
40
16.1328142
50
355.4712507
51
355.6531662
0
ARC
8
bottom_labelLayer
10
183.39514
20
42.7355119
40
2.9485933
50
95.1835142
51
145.1109036
0
ARC
8
bottom_labelLayer
10
183.6543117
20
41.274015
40
4.4293229
50
89.8743571
51
96.8145377
0
ARC
8
bottom_labelLayer
10
183.4493748
20
40.9731521
40
3.6443387
50
89.5731496
51
100.7324069
0
ARC
8
bottom_labelLayer
10
183.1795923
20
42.3361943
40
2.2549278
50
100.4469488
51
119.6700771
0
ARC
8
bottom_labelLayer
10
182.929424
20
42.8039146
40
1.7247538
50
120.1403097
51
142.4248986
0
ARC
8
bottom_labelLayer
10
183.3433057
20
42.530118
40
2.2200212
50
143.3382198
51
161.2559897
0
ARC
8
bottom_labelLayer
10
185.0740893
20
41.9156304
40
4.0565517
50
160.8926173
51
171.2334205
0
ARC
8
bottom_labelLayer
10
187.963432
20
41.4495112
40
6.9832099
50
171.066774
51
177.8456894
0
ARC
8
bottom_labelLayer
10
190.9683168
20
41.2966869
40
9.9917947
50
177.6176947
51
180.0425612
0
ARC
8
bottom_labelLayer
10
189.5512608
20
41.2557796
40
8.5748015
50
179.7762566
51
185.7075354
0
ARC
8
bottom_labelLayer
10
186.1705422
20
40.9074453
40
5.1762112
50
185.5924958
51
194.2050777
0
ARC
8
bottom_labelLayer
10
184.0048681
20
40.3453766
40
2.9388586
50
193.9430359
51
208.0218247
0
ARC
8
bottom_labelLayer
10
183.1286371
20
39.8996165
40
1.9560119
50
208.553694
51
217.5605201
0
ARC
8
bottom_labelLayer
10
183.0572371
20
39.8699159
40
1.8814131
50
218.1690368
51
253.8047259
0
ARC
8
bottom_labelLayer
10
183.4062019
20
40.9458056
40
3.0121421
50
253.1382275
51
266.8483353
0
ARC
8
bottom_labelLayer
10
183.5040591
20
42.0998401
40
4.1699521
50
266.3775733
51
270.0510514
0
ARC
8
bottom_labelLayer
10
183.5354389
20
40.5150488
40
2.5853072
50
269.3868901
51
285.8630675
0
ARC
8
bottom_labelLayer
10
183.7275107
20
39.820875
40
1.865075
50
286.0162924
51
326.8497277
0
ARC
8
bottom_labelLayer
10
182.8004699
20
40.4350049
40
2.9770675
50
326.7105112
51
343.6661763
0
ARC
8
bottom_labelLayer
10
181.0651127
20
40.9652732
40
4.7915591
50
343.4171428
51
353.6369302
0
ARC
8
bottom_labelLayer
10
178.444034
20
41.2762844
40
7.4309831
50
353.4934758
51
0.2205584
0
ARC
8
bottom_labelLayer
10
178.2129483
20
41.335902
40
7.6620766
50
359.7680941
51
6.3095149
0
ARC
8
bottom_labelLayer
10
181.0991115
20
41.6671044
40
4.7570119
50
6.164876
51
16.0396504
0
ARC
8
bottom_labelLayer
10
182.9583138
20
42.2150108
40
2.8188287
50
15.7779603
51
32.0151253
0
ARC
8
bottom_labelLayer
10
183.5381731
20
42.547088
40
2.1512681
50
32.7032831
51
35.5242599
0
ARC
8
bottom_labelLayer
10
183.7501264
20
42.6977357
40
1.8912323
50
35.5408432
51
79.8011227
0
ARC
8
bottom_labelLayer
10
183.4961534
20
41.6180448
40
2.9994091
50
78.6781377
51
90.374958
0
ARC
8
bottom_labelLayer
10
190.1762177
20
41.244104
40
6.6988966
50
349.1762012
51
0.3862631
0
ARC
8
bottom_labelLayer
10
192.4315834
20
40.7944937
40
4.3992605
50
330.2507006
51
349.4116472
0
ARC
8
bottom_labelLayer
10
193.1256786
20
40.4337271
40
3.6177637
50
318.1439573
51
329.7566506
0
ARC
8
bottom_labelLayer
10
193.2509397
20
40.3333428
40
3.4574948
50
278.8959168
51
317.9979082
0
ARC
8
bottom_labelLayer
10
192.9281602
20
41.8798023
40
5.035898
50
269.7502859
51
279.8033344
0
ARC
8
bottom_labelLayer
10
192.8758116
20
41.0084694
40
4.1646282
50
253.5436888
51
270.4182458
0
ARC
8
bottom_labelLayer
10
192.7371838
20
40.4722162
40
3.6111209
50
238.8115736
51
253.2428111
0
ARC
8
bottom_labelLayer
10
192.6924376
20
40.3822315
40
3.5109796
50
207.794703
51
238.6757998
0
ARC
8
bottom_labelLayer
10
193.3346711
20
40.7755442
40
4.2627938
50
205.6560831
51
208.4460268
0
ARC
8
bottom_labelLayer
10
193.8289512
20
40.9814741
40
4.7975876
50
188.9102511
51
205.3171429
0
ARC
8
bottom_labelLayer
10
195.4954559
20
41.2637272
40
6.4877316
50
179.7744682
51
189.0932982
0
ARC
8
bottom_labelLayer
10
195.7413023
20
41.334873
40
6.7336821
50
169.2442988
51
180.3880767
0
ARC
8
bottom_labelLayer
10
193.4545975
20
41.7868714
40
4.4028317
50
150.7111575
51
169.469544
0
ARC
8
bottom_labelLayer
10
192.7246178
20
42.1617403
40
3.5829056
50
138.1759663
51
150.2287244
0
ARC
8
bottom_labelLayer
10
192.6031801
20
42.254929
40
3.4302876
50
99.175932
51
137.9832767
0
ARC
8
bottom_labelLayer
10
192.9373963
20
40.6820692
40
5.0369378
50
89.7326461
51
100.0759793
0
ARC
8
bottom_labelLayer
10
193.0041927
20
41.3613328
40
4.3578344
50
73.5222869
51
90.5692168
0
ARC
8
bottom_labelLayer
10
193.2597534
20
42.2898578
40
3.3950052
50
41.1445676
51
73.2133749
0
ARC
8
bottom_labelLayer
10
192.7719095
20
41.8705623
40
4.0382607
50
13.5014391
51
41.0703471
0
ARC
8
bottom_labelLayer
10
190.8871318
20
41.3773401
40
5.9862338
50
1.1277169
51
13.8800126
0
ARC
8
bottom_labelLayer
10
189.2643613
20
41.290348
40
7.6106009
50
359.9918443
51
1.5420649
0
ARC
8
bottom_labelLayer
10
196.9187851
20
41.2555604
40
6.567347
50
179.7059517
51
187.9160706
0
ARC
8
bottom_labelLayer
10
194.510106
20
40.9095588
40
4.1339827
50
187.7639522
51
200.0976598
0
ARC
8
bottom_labelLayer
10
193.1831386
20
40.423357
40
2.7207473
50
200.0845656
51
216.9131853
0
ARC
8
bottom_labelLayer
10
192.6985921
20
40.0773666
40
2.1255753
50
217.3009467
51
261.7099208
0
ARC
8
bottom_labelLayer
10
192.9235377
20
41.1507745
40
3.2209149
50
260.5033005
51
270.2476987
0
ARC
8
bottom_labelLayer
10
192.9664736
20
40.9420609
40
3.0123109
50
269.4481787
51
284.7255674
0
ARC
8
bottom_labelLayer
10
193.2049415
20
40.0576612
40
2.096352
50
284.5662212
51
322.6333896
0
ARC
8
bottom_labelLayer
10
192.6473923
20
40.4604656
40
2.7840014
50
323.0089322
51
342.6390441
0
ARC
8
bottom_labelLayer
10
191.05269
20
40.9816597
40
4.4616269
50
342.3615742
51
353.7537649
0
ARC
8
bottom_labelLayer
10
188.6999694
20
41.2652499
40
6.8312849
50
353.5363074
51
0.2014182
0
ARC
8
bottom_labelLayer
10
189.0604344
20
41.3222902
40
6.470862
50
359.707576
51
7.8972758
0
ARC
8
bottom_labelLayer
10
191.4302482
20
41.6620252
40
4.0768595
50
7.7439955
51
20.0690237
0
ARC
8
bottom_labelLayer
10
192.7508041
20
42.1466214
40
2.6701986
50
20.0256779
51
37.4350666
0
ARC
8
bottom_labelLayer
10
193.1889465
20
42.4575209
40
2.1333995
50
37.957772
51
80.4006157
0
ARC
8
bottom_labelLayer
10
192.9399602
20
41.3465602
40
3.2708796
50
79.3453667
51
90.3174619
0
ARC
8
bottom_labelLayer
10
192.893859
20
41.5311027
40
3.0864138
50
89.480611
51
103.8805101
0
ARC
8
bottom_labelLayer
10
192.6345196
20
42.5186646
40
2.0655291
50
103.468519
51
142.3118967
0
ARC
8
bottom_labelLayer
10
193.1386976
20
42.1640909
40
2.6814262
50
142.9025851
51
162.3749443
0
ARC
8
bottom_labelLayer
10
194.7273383
20
41.6346804
40
4.3558556
50
162.0653062
51
173.1675044
0
ARC
8
bottom_labelLayer
10
197.204489
20
41.3187326
40
6.8530279
50
173.0086135
51
180.2463718
0
LINE
8
bottom_labelLayer
10
203.0858996
20
38.0705146
11
203.0858996
21
37.0783271
0
LINE
8
bottom_labelLayer
10
199.2421496
20
39.4611396
11
199.2421496
21
44.5548896
0
LINE
8
bottom_labelLayer
10
199.2421496
20
44.5548896
11
198.0155871
21
44.5548896
0
LINE
8
bottom_labelLayer
10
198.0155871
20
44.5548896
11
198.0155871
21
45.1798896
0
LINE
8
bottom_labelLayer
10
198.0155871
20
45.1798896
11
199.2421496
21
45.7189521
0
LINE
8
bottom_labelLayer
10
199.2421496
20
45.7189521
11
199.7890246
21
47.5470771
0
LINE
8
bottom_labelLayer
10
199.7890246
20
47.5470771
11
200.5390246
21
47.5470771
0
LINE
8
bottom_labelLayer
10
200.5390246
20
47.5470771
11
200.5390246
21
45.5627021
0
LINE
8
bottom_labelLayer
10
200.5390246
20
45.5627021
11
203.0233996
21
45.5627021
0
LINE
8
bottom_labelLayer
10
203.0233996
20
45.5627021
11
203.0233996
21
44.5548896
0
LINE
8
bottom_labelLayer
10
203.0233996
20
44.5548896
11
200.5390246
21
44.5548896
0
LINE
8
bottom_labelLayer
10
200.5390246
20
44.5548896
11
200.5390246
21
39.5158271
0
ARC
8
bottom_labelLayer
10
201.9229184
20
42.1733716
40
4.2591162
50
269.8803567
51
278.3028318
0
ARC
8
bottom_labelLayer
10
201.9635754
20
41.8414177
40
3.9247782
50
278.4153127
51
279.0079991
0
ARC
8
bottom_labelLayer
10
201.4854531
20
44.8957038
40
7.0162574
50
278.9590721
51
280.5103649
0
ARC
8
bottom_labelLayer
10
201.9411109
20
42.450814
40
4.5292706
50
280.4846589
51
282.6269548
0
ARC
8
bottom_labelLayer
10
202.3404638
20
40.676663
40
2.7107303
50
282.5876285
51
285.5795817
0
ARC
8
bottom_labelLayer
10
202.5398261
20
39.9433369
40
1.9508101
50
285.7239904
51
286.255517
0
ARC
8
bottom_labelLayer
10
202.5406545
20
38.2315531
40
1.2756262
50
287.9888574
51
295.3047808
0
ARC
8
bottom_labelLayer
10
202.2329794
20
39.1624224
40
2.2560173
50
283.3069695
51
288.1197178
0
ARC
8
bottom_labelLayer
10
201.9079458
20
40.5182698
40
3.6502763
50
280.0070407
51
283.3734265
0
ARC
8
bottom_labelLayer
10
201.6907172
20
41.6970674
40
4.8488964
50
279.1861309
51
280.1143916
0
ARC
8
bottom_labelLayer
10
201.5570147
20
42.4575702
40
5.6210002
50
275.5260636
51
279.2939685
0
ARC
8
bottom_labelLayer
10
201.707438
20
40.8864569
40
4.0427032
50
270.8933019
51
275.5483393
0
ARC
8
bottom_labelLayer
10
201.726342
20
40.1686349
40
3.3246827
50
270.0031482
51
270.7604232
0
ARC
8
bottom_labelLayer
10
201.6741917
20
40.230799
40
3.3872511
50
253.7848117
51
270.8852531
0
ARC
8
bottom_labelLayer
10
201.2728926
20
38.8622138
40
1.9610501
50
190.3817602
51
253.8772488
0
ARC
8
bottom_labelLayer
10
203.3183042
20
39.4152577
40
4.0764128
50
179.3550948
51
192.8477675
0
ARC
8
bottom_labelLayer
10
203.1504416
20
39.4994943
40
2.6114681
50
179.6416537
51
189.7506186
0
ARC
8
bottom_labelLayer
10
202.2285417
20
39.3350599
40
1.6750477
50
189.5479202
51
205.787396
0
ARC
8
bottom_labelLayer
10
201.849681
20
39.1603536
40
1.2579354
50
206.1294055
51
221.4084301
0
ARC
8
bottom_labelLayer
10
201.807205
20
39.1281229
40
1.2047661
50
221.5949113
51
262.3505133
0
ARC
8
bottom_labelLayer
10
201.9082368
20
39.6476607
40
1.7334058
50
261.3265906
51
270.1913121
0
LINE
8
bottom_labelLayer
10
208.7343371
20
38.0705146
11
208.7343371
21
37.0783271
0
LINE
8
bottom_labelLayer
10
204.8905871
20
39.4611396
11
204.8905871
21
44.5548896
0
LINE
8
bottom_labelLayer
10
204.8905871
20
44.5548896
11
203.6640246
21
44.5548896
0
LINE
8
bottom_labelLayer
10
203.6640246
20
44.5548896
11
203.6640246
21
45.1798896
0
LINE
8
bottom_labelLayer
10
203.6640246
20
45.1798896
11
204.8905871
21
45.7189521
0
LINE
8
bottom_labelLayer
10
204.8905871
20
45.7189521
11
205.4374621
21
47.5470771
0
LINE
8
bottom_labelLayer
10
205.4374621
20
47.5470771
11
206.1874621
21
47.5470771
0
LINE
8
bottom_labelLayer
10
206.1874621
20
47.5470771
11
206.1874621
21
45.5627021
0
LINE
8
bottom_labelLayer
10
206.1874621
20
45.5627021
11
208.6718371
21
45.5627021
0
LINE
8
bottom_labelLayer
10
208.6718371
20
45.5627021
11
208.6718371
21
44.5548896
0
LINE
8
bottom_labelLayer
10
208.6718371
20
44.5548896
11
206.1874621
21
44.5548896
0
LINE
8
bottom_labelLayer
10
206.1874621
20
44.5548896
11
206.1874621
21
39.5158271
0
ARC
8
bottom_labelLayer
10
207.5713559
20
42.1733716
40
4.2591162
50
269.8803567
51
278.3028318
0
ARC
8
bottom_labelLayer
10
207.6120129
20
41.8414177
40
3.9247782
50
278.4153127
51
279.0079991
0
ARC
8
bottom_labelLayer
10
207.1338906
20
44.8957038
40
7.0162574
50
278.9590721
51
280.5103649
0
ARC
8
bottom_labelLayer
10
207.5895484
20
42.450814
40
4.5292706
50
280.4846589
51
282.6269548
0
ARC
8
bottom_labelLayer
10
207.9889013
20
40.676663
40
2.7107303
50
282.5876285
51
285.5795817
0
ARC
8
bottom_labelLayer
10
208.1882636
20
39.9433369
40
1.9508101
50
285.7239904
51
286.255517
0
ARC
8
bottom_labelLayer
10
208.189092
20
38.2315531
40
1.2756262
50
287.9888574
51
295.3047808
0
ARC
8
bottom_labelLayer
10
207.8814169
20
39.1624224
40
2.2560173
50
283.3069695
51
288.1197178
0
ARC
8
bottom_labelLayer
10
207.5563833
20
40.5182698
40
3.6502763
50
280.0070407
51
283.3734265
0
ARC
8
bottom_labelLayer
10
207.3391547
20
41.6970674
40
4.8488964
50
279.1861309
51
280.1143916
0
ARC
8
bottom_labelLayer
10
207.2054522
20
42.4575702
40
5.6210002
50
275.5260636
51
279.2939685
0
ARC
8
bottom_labelLayer
10
207.3558755
20
40.8864569
40
4.0427032
50
270.8933019
51
275.5483393
0
ARC
8
bottom_labelLayer
10
207.3747795
20
40.1686349
40
3.3246827
50
270.0031482
51
270.7604232
0
ARC
8
bottom_labelLayer
10
207.3226292
20
40.230799
40
3.3872511
50
253.7848117
51
270.8852531
0
ARC
8
bottom_labelLayer
10
206.9213301
20
38.8622138
40
1.9610501
50
190.3817602
51
253.8772488
0
ARC
8
bottom_labelLayer
10
208.9667417
20
39.4152577
40
4.0764128
50
179.3550948
51
192.8477675
0
ARC
8
bottom_labelLayer
10
208.7988791
20
39.4994943
40
2.6114681
50
179.6416537
51
189.7506186
0
ARC
8
bottom_labelLayer
10
207.8769792
20
39.3350599
40
1.6750477
50
189.5479202
51
205.787396
0
ARC
8
bottom_labelLayer
10
207.4981185
20
39.1603536
40
1.2579354
50
206.1294055
51
221.4084301
0
ARC
8
bottom_labelLayer
10
207.4556425
20
39.1281229
40
1.2047661
50
221.5949113
51
262.3505133
0
ARC
8
bottom_labelLayer
10
207.5566743
20
39.6476607
40
1.7334058
50
261.3265906
51
270.1913121
0
ARC
8
bottom_labelLayer
10
211.1371552
20
41.244104
40
6.6988966
50
349.1762012
51
0.3862631
0
ARC
8
bottom_labelLayer
10
213.3925209
20
40.7944937
40
4.3992605
50
330.2507006
51
349.4116472
0
ARC
8
bottom_labelLayer
10
214.0866161
20
40.4337271
40
3.6177637
50
318.1439573
51
329.7566506
0
ARC
8
bottom_labelLayer
10
214.2118772
20
40.3333428
40
3.4574948
50
278.8959168
51
317.9979082
0
ARC
8
bottom_labelLayer
10
213.8890977
20
41.8798023
40
5.035898
50
269.7502859
51
279.8033344
0
ARC
8
bottom_labelLayer
10
213.8367491
20
41.0084694
40
4.1646282
50
253.5436888
51
270.4182458
0
ARC
8
bottom_labelLayer
10
213.6981213
20
40.4722162
40
3.6111209
50
238.8115736
51
253.2428111
0
ARC
8
bottom_labelLayer
10
213.6533751
20
40.3822315
40
3.5109796
50
207.794703
51
238.6757998
0
ARC
8
bottom_labelLayer
10
214.2956086
20
40.7755442
40
4.2627938
50
205.6560831
51
208.4460268
0
ARC
8
bottom_labelLayer
10
214.7898887
20
40.9814741
40
4.7975876
50
188.9102511
51
205.3171429
0
ARC
8
bottom_labelLayer
10
216.4563934
20
41.2637272
40
6.4877316
50
179.7744682
51
189.0932982
0
ARC
8
bottom_labelLayer
10
216.7022398
20
41.334873
40
6.7336821
50
169.2442988
51
180.3880767
0
ARC
8
bottom_labelLayer
10
214.415535
20
41.7868714
40
4.4028317
50
150.7111575
51
169.469544
0
ARC
8
bottom_labelLayer
10
213.6855553
20
42.1617403
40
3.5829056
50
138.1759663
51
150.2287244
0
ARC
8
bottom_labelLayer
10
213.5641176
20
42.254929
40
3.4302876
50
99.175932
51
137.9832767
0
ARC
8
bottom_labelLayer
10
213.8983338
20
40.6820692
40
5.0369378
50
89.7326461
51
100.0759793
0
ARC
8
bottom_labelLayer
10
213.9651302
20
41.3613328
40
4.3578344
50
73.5222869
51
90.5692168
0
ARC
8
bottom_labelLayer
10
214.2206909
20
42.2898578
40
3.3950052
50
41.1445676
51
73.2133749
0
ARC
8
bottom_labelLayer
10
213.732847
20
41.8705623
40
4.0382607
50
13.5014391
51
41.0703471
0
ARC
8
bottom_labelLayer
10
211.8480693
20
41.3773401
40
5.9862338
50
1.1277169
51
13.8800126
0
ARC
8
bottom_labelLayer
10
210.2252988
20
41.290348
40
7.6106009
50
359.9918443
51
1.5420649
0
ARC
8
bottom_labelLayer
10
217.8797226
20
41.2555604
40
6.567347
50
179.7059517
51
187.9160706
0
ARC
8
bottom_labelLayer
10
215.4710435
20
40.9095588
40
4.1339827
50
187.7639522
51
200.0976598
0
ARC
8
bottom_labelLayer
10
214.1440761
20
40.423357
40
2.7207473
50
200.0845656
51
216.9131853
0
ARC
8
bottom_labelLayer
10
213.6595296
20
40.0773666
40
2.1255753
50
217.3009467
51
261.7099208
0
ARC
8
bottom_labelLayer
10
213.8844752
20
41.1507745
40
3.2209149
50
260.5033005
51
270.2476987
0
ARC
8
bottom_labelLayer
10
213.9274111
20
40.9420609
40
3.0123109
50
269.4481787
51
284.7255674
0
ARC
8
bottom_labelLayer
10
214.165879
20
40.0576612
40
2.096352
50
284.5662212
51
322.6333896
0
ARC
8
bottom_labelLayer
10
213.6083298
20
40.4604656
40
2.7840014
50
323.0089322
51
342.6390441
0
ARC
8
bottom_labelLayer
10
212.0136275
20
40.9816597
40
4.4616269
50
342.3615742
51
353.7537649
0
ARC
8
bottom_labelLayer
10
209.6609069
20
41.2652499
40
6.8312849
50
353.5363074
51
0.2014182
0
ARC
8
bottom_labelLayer
10
210.0213719
20
41.3222902
40
6.470862
50
359.707576
51
7.8972758
0
ARC
8
bottom_labelLayer
10
212.3911857
20
41.6620252
40
4.0768595
50
7.7439955
51
20.0690237
0
ARC
8
bottom_labelLayer
10
213.7117416
20
42.1466214
40
2.6701986
50
20.0256779
51
37.4350666
0
ARC
8
bottom_labelLayer
10
214.149884
20
42.4575209
40
2.1333995
50
37.957772
51
80.4006157
0
ARC
8
bottom_labelLayer
10
213.9008977
20
41.3465602
40
3.2708796
50
79.3453667
51
90.3174619
0
ARC
8
bottom_labelLayer
10
213.8547965
20
41.5311027
40
3.0864138
50
89.480611
51
103.8805101
0
ARC
8
bottom_labelLayer
10
213.5954571
20
42.5186646
40
2.0655291
50
103.468519
51
142.3118967
0
ARC
8
bottom_labelLayer
10
214.0996351
20
42.1640909
40
2.6814262
50
142.9025851
51
162.3749443
0
ARC
8
bottom_labelLayer
10
215.6882758
20
41.6346804
40
4.3558556
50
162.0653062
51
173.1675044
0
ARC
8
bottom_labelLayer
10
218.1654265
20
41.3187326
40
6.8530279
50
173.0086135
51
180.2463718
0
LINE
8
bottom_labelLayer
10
232.3202746
20
37.0002021
11
231.0233996
21
37.0002021
0
LINE
8
bottom_labelLayer
10
231.0233996
20
37.0002021
11
231.0233996
21
42.5705146
0
LINE
8
bottom_labelLayer
10
226.8593371
20
41.7814521
11
226.8593371
21
37.0002021
0
LINE
8
bottom_labelLayer
10
226.8593371
20
37.0002021
11
225.5624621
21
37.0002021
0
LINE
8
bottom_labelLayer
10
225.5624621
20
37.0002021
11
225.5624621
21
42.5705146
0
LINE
8
bottom_labelLayer
10
221.4062121
20
41.4923896
11
221.4062121
21
37.0002021
0
LINE
8
bottom_labelLayer
10
221.4062121
20
37.0002021
11
220.1093371
21
37.0002021
0
LINE
8
bottom_labelLayer
10
220.1093371
20
37.0002021
11
220.1093371
21
45.5627021
0
LINE
8
bottom_labelLayer
10
220.1093371
20
45.5627021
11
221.1640246
21
45.5627021
0
LINE
8
bottom_labelLayer
10
221.1640246
20
45.5627021
11
221.3749621
21
44.3908271
0
LINE
8
bottom_labelLayer
10
221.3749621
20
44.3908271
11
221.4374621
21
44.3908271
0
LINE
8
bottom_labelLayer
10
226.5937121
20
44.2658271
11
226.6562121
21
44.2658271
0
LINE
8
bottom_labelLayer
10
232.3202746
20
42.5861396
11
232.3202746
21
37.0002021
0
ARC
8
bottom_labelLayer
10
227.1975588
20
42.5908908
40
3.8258951
50
359.6948496
51
8.1471423
0
ARC
8
bottom_labelLayer
10
228.6067594
20
42.7994359
40
2.4013723
50
7.9864611
51
20.7949391
0
ARC
8
bottom_labelLayer
10
229.3857219
20
43.0978265
40
1.5672196
50
20.7071327
51
40.0217263
0
ARC
8
bottom_labelLayer
10
229.5566133
20
43.2096386
40
1.3646627
50
41.0407914
51
73.1792889
0
ARC
8
bottom_labelLayer
10
229.3093398
20
42.4617603
40
2.152194
50
72.6395319
51
86.2567876
0
ARC
8
bottom_labelLayer
10
229.2301226
20
41.606946
40
3.010446
50
85.8144405
51
90.0684784
0
ARC
8
bottom_labelLayer
10
229.2010216
20
41.2804338
40
3.3370533
50
89.5621194
51
101.2961909
0
ARC
8
bottom_labelLayer
10
228.9496862
20
42.4836588
40
2.1079333
50
101.0032444
51
121.7840414
0
ARC
8
bottom_labelLayer
10
228.7586067
20
42.8247898
40
1.7174
50
122.359715
51
140.2883997
0
ARC
8
bottom_labelLayer
10
229.1023761
20
42.572726
40
2.1430555
50
140.9765145
51
161.169946
0
ARC
8
bottom_labelLayer
10
230.3974334
20
42.1118447
40
3.5176036
50
160.8731803
51
172.52727
0
ARC
8
bottom_labelLayer
10
232.5614427
20
41.8129774
40
5.7021222
50
172.3776497
51
180.182974
0
ARC
8
bottom_labelLayer
10
234.0002636
20
41.7815673
40
7.1409264
50
179.8940854
51
180.0009236
0
ARC
8
bottom_labelLayer
10
221.7366213
20
42.5908908
40
3.8258951
50
359.6948496
51
8.1471423
0
ARC
8
bottom_labelLayer
10
223.1458219
20
42.7994359
40
2.4013723
50
7.9864611
51
20.7949391
0
ARC
8
bottom_labelLayer
10
223.9247844
20
43.0978265
40
1.5672196
50
20.7071327
51
40.0217263
0
ARC
8
bottom_labelLayer
10
224.0992275
20
43.2120917
40
1.3603732
50
41.0610822
51
72.8993466
0
ARC
8
bottom_labelLayer
10
223.8472742
20
42.4620041
40
2.1514817
50
72.3600597
51
85.9562195
0
ARC
8
bottom_labelLayer
10
223.7619804
20
41.5804856
40
3.0369069
50
85.5238348
51
90.0793477
0
ARC
8
bottom_labelLayer
10
223.7328894
20
41.3964151
40
3.2210707
50
89.5573417
51
101.4832128
0
ARC
8
bottom_labelLayer
10
223.4856601
20
42.5547391
40
2.0367478
50
101.1546276
51
123.0655738
0
ARC
8
bottom_labelLayer
10
223.3176087
20
42.8474769
40
1.6998361
50
123.7020508
51
142.302205
0
ARC
8
bottom_labelLayer
10
223.7112617
20
42.5804177
40
2.1748175
50
143.0769747
51
161.3913693
0
ARC
8
bottom_labelLayer
10
225.2980589
20
42.0199989
40
3.8575677
50
161.0234625
51
171.4468919
0
ARC
8
bottom_labelLayer
10
227.9249156
20
41.6085103
40
6.5164289
50
171.3041883
51
178.3501783
0
ARC
8
bottom_labelLayer
10
230.4358088
20
41.4963739
40
9.0295976
50
178.0976382
51
180.0252812
0
ARC
8
bottom_labelLayer
10
223.6345433
20
43.098835
40
2.5488055
50
117.1209501
51
149.5423716
0
ARC
8
bottom_labelLayer
10
223.8946706
20
42.6364917
40
3.0789668
50
93.8343191
51
117.507209
0
ARC
8
bottom_labelLayer
10
223.9665181
20
42.0001448
40
3.7188081
50
89.9661966
51
94.2831787
0
ARC
8
bottom_labelLayer
10
224.0095663
20
41.4731779
40
4.2459708
50
77.5572067
51
90.5513009
0
ARC
8
bottom_labelLayer
10
224.4035473
20
43.1677547
40
2.5063846
50
52.702701
51
78.0053909
0
ARC
8
bottom_labelLayer
10
224.5439137
20
43.4289115
40
2.2140689
50
22.2097849
51
51.4970464
0
ARC
8
bottom_labelLayer
10
229.0055582
20
42.9194116
40
2.7078149
50
119.4041797
51
150.1828804
0
ARC
8
bottom_labelLayer
10
229.3060385
20
42.4624308
40
3.2536677
50
118.2585276
51
120.0629554
0
ARC
8
bottom_labelLayer
10
229.3050117
20
42.4293478
40
3.2823634
50
95.8635104
51
117.9693284
0
ARC
8
bottom_labelLayer
10
229.4161021
20
41.6260857
40
4.0928706
50
89.9197163
51
96.261765
0
ARC
8
bottom_labelLayer
10
229.4517643
20
41.21104
40
4.5080115
50
79.9361068
51
90.38037
0
ARC
8
bottom_labelLayer
10
229.752139
20
42.8378401
40
2.8537758
50
62.9723272
51
80.1665078
0
ARC
8
bottom_labelLayer
10
230.0661388
20
43.4820491
40
2.1372745
50
44.2290299
51
62.622885
0
ARC
8
bottom_labelLayer
10
229.9727484
20
43.4407956
40
2.233253
50
19.5612177
51
43.3161085
0
ARC
8
bottom_labelLayer
10
228.6163889
20
42.9313475
40
3.6819907
50
7.5042047
51
19.964518
0
ARC
8
bottom_labelLayer
10
226.3719793
20
42.6161689
40
5.948371
50
359.7107514
51
7.6907001
0
ENDSEC
0
EOF